<svg xmlns="http://www.w3.org/2000/svg" width="158" height="134" fill="none"><circle cx="79" cy="67" r="67" fill="#9C3"/><path fill="#5C7A1F" d="M11.1 61.29c-.12-20.93 13.08-27.68 24.22-29.64l-.27-.03-.29-3-1.37 2.81c-2.45-.3-4.62-.72-6.5-1.16l-.42-4.33-1.84 3.76c-4.16-1.15-6.38-2.3-6.38-2.3 10.93-11.07 21.34-5.52 27.08-.56a9.68 9.68 0 0 1 5.53-8.98 9.73 9.73 0 0 1 1.78 6.07c4.63-5.51 12.44-10.41 23.93-4.02 0 0-1.81 1.73-5.48 4l-2.83-3.1.82 4.29a64.1 64.1 0 0 1-5.92 2.93l-2.1-2.31.56 2.96-.93.36c10.85-1.26 25.06 1.27 30.62 20.8 0 0-3.72-.08-9.96-1.55l.28-6.23L78 47.42a94.92 94.92 0 0 1-9.3-3.14l.2-4.64-2.51 3.7c-4.72-2-9.93-4.62-15.44-8.03A10.76 10.76 0 0 1 53 44.18c4.87 16.18 6.49 62.67-6.18 86.23l-15.57.14s22.58-41.11 19.08-81.47a10.81 10.81 0 0 1-4.3-12.75c-4.11 4.43-8.14 8.13-11.91 11.2l-3.6-2.96 1.57 4.58a99.22 99.22 0 0 1-8.38 5.84l-5.2-4.3 2.1 6.15c-5.81 3.28-9.5 4.45-9.5 4.45ZM143.02 76.76c-.59-15.21-10.4-19.68-18.55-20.75l.2-.02.1-2.2 1.1 2c1.76-.3 3.33-.67 4.68-1.05l.16-3.16 1.46 2.67c2.99-.97 4.56-1.88 4.56-1.88-8.3-7.69-15.68-3.31-19.69.47a7.04 7.04 0 0 0-4.3-6.34 7.08 7.08 0 0 0-1.1 4.47c-3.55-3.86-9.38-7.16-17.51-2.14 0 0 1.37 1.2 4.1 2.73l1.96-2.35-.45 3.14c1.25.63 2.71 1.3 4.39 1.94l1.45-1.75-.3 2.17.67.23c-7.92-.56-18.15 1.74-21.56 16.1 0 0 2.7-.17 7.19-1.44l-.41-4.52 2.82 3.78a69.1 69.1 0 0 0 6.66-2.59l-.31-3.36 1.95 2.6a82.66 82.66 0 0 0 10.95-6.33 7.82 7.82 0 0 0-1.2 6.5c-3.02 11.92-2.68 45.74 7.29 62.45l11.3-.41s-17.73-29.13-16.5-58.56a7.86 7.86 0 0 0 2.72-9.4 85.2 85.2 0 0 0 9 7.75l2.52-2.27-.99 3.38a72.1 72.1 0 0 0 6.28 3.97l3.64-3.29-1.33 4.53a40.48 40.48 0 0 0 7.05 2.93Z"/><g clip-path="url(#a)"><path fill="#1B0088" d="M53.64 71.23s3.42-.22 2.68 4.56c-.68 4.37-2.97 6.14-1.1 8.03 1.21 1.22-.5 3.6.8 5.27 1.46 1.89-.97 4.66-3.84 3.84-.77-.87-.83-3.3-.92-5.94-.1-2.64.89-3.56.47-7.27-.43-3.72 3.9-4.93 1.9-8.5Z"/><path fill="#1B0088" d="M54.47 72.57c-2.12-.12-1.45.34-1.63.52 0 0-1.04.8-1.58 2.12-.53 1.29-.17 2.18-.15 3.42 1.12 2.28-.47 1.62-.96 5.03-.05.33-4.04 4.89-5.32 2.95-1.05-1.58-1.99-1.45-2.3-2.95-.3-1.51 1.09-2.32 2.05-2.98 1.19-.81.41-1.87 1.1-2.99.85-1.4 1.33-.92 2.28-2.05 1-1.19.53-1.94 2-3.65.92-1.07 2.5-1.45 3.45-1.06 1 .4 1.33 1.45 1.06 1.64Z"/><path fill="#4658DF" d="M43.45 83.86h.01v-.02h.01l-.01-.04v-.02a.03.03 0 0 0-.02-.03.9.9 0 0 1-.01-.05h-.01v-.01l-.02-.05-.01-.03v-.01h-.02a.16.16 0 0 1 0-.04s-.01-.02 0 0l-.01-.02a.06.06 0 0 1-.01-.05s-.02 0 0 0v-.06c0-.02 0 0 0 0v-.01a.06.06 0 0 1 0-.04l-.02-.05-.02-.03s.02 0 0 0c0 0 0-.02 0 0a.1.1 0 0 1 .01-.06v-.04c0-.02 0 0 0 0l-.01-.02v-.06l.01-.04V83c0-.01 0 0 0 0v.01c-.01 0 0 0 0 0v-.04h-.01c-.02 0-.01 0-.01-.01l.01-.04a.05.05 0 0 1 .03-.03l-.01-.02v-.01c0-.01 0 0 0 0l.01-.02a.02.02 0 0 1 0-.01v-.01c.02-.02.02-.02.02-.05v-.02h.01s.02-.02.01-.03v-.03h.02v-.02s.02-.02 0-.03v-.01l.01-.02.01-.01h.02v-.03l.03-.03.01-.02.01-.01v-.02l.02-.02.02-.03a.16.16 0 0 0 .03-.04l.02-.03v-.01l-.02.01h.01a.15.15 0 0 1 .04-.05l.01-.01v-.01s-.01 0 0 0v-.02c.01 0 .02-.01 0-.02.02 0 .01 0 .01-.01h.02l.02-.04c.01-.01.02-.02.01-.03.02.02.02 0 .03 0v-.03h.01c0-.02.01-.02.02-.03l.02-.03.03-.02s0 .01 0 0v-.01h.01v-.02h.01l.02-.02.01-.01.02-.02.01-.01v-.02l.02-.01v-.02l.01-.02h.01v-.02l.02-.01.01-.01v-.02h.02l.02-.05.02-.03a.1.1 0 0 1 .04-.04c-.01 0 0 0 0 0h-.01v-.01c.02 0 .02-.03.04-.04.02 0 .02-.02.03-.03 0-.02.02-.04.03-.05v-.01l.02-.02h.01v-.02l.01-.01a.05.05 0 0 0 .02-.04v-.02l.02-.01a.12.12 0 0 0 .02-.04.26.26 0 0 0 .04-.06l.02-.04a.27.27 0 0 0 .03-.06l.01-.06h.01l.01-.03v-.02s.02-.01.01-.02c0-.01 0-.01 0 0l.01-.01.02-.05v-.03l.01-.03v-.06a.02.02 0 0 1 0-.02.02.02 0 0 0-.02-.01l-.02.04V81h-.01l-.01.02-.02.04v.04s-.02 0-.02.02l-.03.09h-.01l-.01.04-.02.03-.01.01s0 .02-.02.02a.18.18 0 0 0-.02.06l-.02.02-.02.03-.01.04-.02.03a.17.17 0 0 0-.03.04.2.2 0 0 0-.05.06l-.04.04c-.02.02-.01.03-.03.03v.02a.25.25 0 0 1-.04.05.13.13 0 0 0-.03.05l-.03.03-.02.02v.01l-.01.02c-.02.01-.04.02-.04.05l-.02.02-.01.02-.02.02v.01h-.01a.06.06 0 0 0-.03.04l-.02.03-.01.01-.02.02c0 .02-.03.03-.03.06l-.02.03a.44.44 0 0 0-.03.04v-.01l-.08.13-.03.06-.01.02a.34.34 0 0 0-.05.09l-.01.01a.24.24 0 0 0-.03.06v.04l-.03.03-.01.05v.01s0 .01 0 0l-.01.01v.02l-.02.05a1.17 1.17 0 0 0-.04.19V83.1a.02.02 0 0 1 0 .02V83.28c-.01 0 0 0 0 0v.16c.02.02.02.03.01.05.02.02.01.04.02.06v.03h.01l.01.04.02.01v.02c0 .02 0 .04.02.06l.01.05c.01.01.02.02.01.03 0-.02 0 0 0 0 0 .03.02.05.03.07v.02h.03-.01v.01c.02 0 .02.02.03.02-.03-.05 0-.04.01-.05Zm.32-2.04h.01c0-.01 0 0 0 0Zm-.16.24c-.01 0 0 0 0 0Zm.05.05Zm-.1.17Zm-.16.33v-.01c.01 0 0 0 0 0 .01.01 0 0 0 0Zm-.05.73-.01-.01v-.01s.02.01 0 .02Zm0 .05Z"/><path fill="#2D34CE" d="M45.85 85.39h.04l.03-.02.03-.01v-.02h.01l.04-.03v-.01h.01c.02 0 .04-.02.04-.04l.03-.02.01-.01v-.02l.03-.03s0-.01 0 0l.01-.01c0-.01 0-.02.02-.02l.02-.02s0-.01 0 0l.01-.02v.01h.02l.03-.04v.01h.01l.01-.03.02-.01a.11.11 0 0 0 .02-.04c.01-.01 0-.03.02-.04v.01-.01a.1.1 0 0 1 .05-.04l.03-.03v-.03a.1.1 0 0 1 .04-.04.16.16 0 0 0 .03-.04l.01-.01v-.01a.28.28 0 0 0 .04-.04h-.01v-.06a.2.2 0 0 1 .05-.04l.02-.01v-.04h.02a.02.02 0 0 1 0-.02s.01 0 0 0a.01.01 0 0 1 0-.02c.03 0 .03 0 .03-.04.01 0 .02 0 .02-.02h.01l.02-.03v-.02l.02-.01v-.01s.02-.03.01-.04v-.03l.02-.01h.01l.01-.02h-.01l.01-.02c0-.01 0 0 0 0v-.01l.02-.01v-.03c.02 0 .02-.02.03-.03a.13.13 0 0 0 .03-.05l.01-.03c.01 0 0 0 0 0h-.01v-.01l.04-.05.01-.01h-.01v-.02l.01-.02v-.01c-.01 0-.01 0 0 0V84c0-.01 0-.02.01 0v-.01l.02-.04v-.01c.01 0 .02-.01.01-.02.01 0 .02 0 .03-.02v-.06a.1.1 0 0 0 .02-.03l.01-.03h.01v-.02c.01 0 .02-.01.01-.02 0 0 .02-.02.01-.03v-.02l.02-.02a.05.05 0 0 0 0-.03l.02-.02v-.05c.02 0 .02 0 .01-.01l.01-.02v-.03l.01-.02v-.04l.01-.04h.01c0-.01 0-.04.02-.05v-.01h-.01c.01-.02 0-.04.02-.06 0-.01 0-.03.02-.04 0 0 0-.01 0 0l.01-.06v-.04c.02 0 .02-.01.01-.02v-.01a.05.05 0 0 0 .01-.05.05.05 0 0 1 0-.04l.02-.04v-.07c.02 0 .02-.03.02-.04a.4.4 0 0 0 .01-.08v-.05l.01-.01v-.07s0-.01 0 0h.01v-.09l.01-.03V82.48h-.01v-.02h-.02v.04a.1.1 0 0 0-.01.03v.01l-.01.01v.04a.1.1 0 0 0-.01.05v.02l-.02.1v.01l-.01.04v.03l-.01.02v.03c-.02.02-.02.04-.02.06v.02l-.02.04v.08l-.02.05a.21.21 0 0 0-.03.08l-.02.05v.06l-.02.06-.02.06a.1.1 0 0 1-.01.03c0 .01 0 .02-.02.03v.01c.02 0 0 .01 0 .02 0 0-.03.04-.02.06v.03h-.01l-.01.01v.01c.01 0 0 0 0 0v.03-.01.02a.07.07 0 0 0-.02.04l-.01.03-.01.02-.01.01c0 .03-.02.05-.03.07v.04l-.02.04v-.01h-.01l-.07.14-.02.06c0 .02-.01 0-.02.01a.43.43 0 0 0-.04.09l-.01.01a.3.3 0 0 0-.04.05v.02s-.01 0 0 0v.02c-.02 0-.02.01-.03.02l-.02.04v.02h-.01a.02.02 0 0 1 0 .03c-.02 0-.02.02-.03.04l-.07.1a.24.24 0 0 1-.03.05l-.02.03-.05.06v.02a.02.02 0 0 1-.02.01v.02l-.03.03-.02.03v.01h-.01l-.02.03a.27.27 0 0 1-.07.07v.01l-.02.02-.02.02c0 .02-.03.03-.03.04l-.02.02s-.01 0 0 0c0 .02-.02.03-.02.03l-.01.02-.01.01a.1.1 0 0 0-.04.05l-.04.03v.02a.02.02 0 0 1-.02 0h-.01v.02c-.03 0-.04.03-.06.04v.01h-.02.01v.02-.01.01l-.02.02a.06.06 0 0 0 0 .07ZM47 83.56Zm-.1.27v.01c-.01 0 0 0 0 0v-.01Zm.06.04Zm-.08.2v-.02.02Zm-.17.33v-.01c0 .01 0 .01 0 0v.01Zm-.43.64v-.01h.02-.02v.01Zm-.04.04h.01Z"/><path fill="#4658DF" d="M44.88 82.2c.02-.03.02-.02.03-.01h.01a.32.32 0 0 0 .06-.07l.02-.01a.17.17 0 0 0 .05-.05l.02-.03.06-.07.02-.02v-.02a.32.32 0 0 0 .08-.09l.03-.06h.01l.01-.02.01-.02v-.01c0-.03.03-.06.04-.09 0 0 .01-.02.01 0l.01-.03a.38.38 0 0 1 .05-.1c0-.01.02-.02.01-.03 0-.01 0 0 0 0l.02-.03v-.01.01-.01l.04-.1v.02l.02-.03c0-.04.02-.07.04-.1a.49.49 0 0 0 .03-.1c0-.02 0-.05.02-.08l-.01.03.01-.04a.83.83 0 0 1 .05-.12l.03-.1s-.02 0-.01-.04c0-.04.02-.08.04-.12l.03-.1v-.04l.02-.02.02-.1v-.11l.03-.1c0-.03.01-.05.03-.08v-.07c0-.01 0 0 0 0l.02-.04a.17.17 0 0 1 0-.05v.01l.01-.03a.15.15 0 0 0 .02-.1v-.01l.01-.05v-.02.02h.01l.01-.08v-.06l.02-.03v-.03c0-.03.02-.06.01-.07v-.03a.05.05 0 0 0 .01-.05.05.05 0 0 1 .01-.03.13.13 0 0 0 .02-.06v-.02.03-.05l.02-.02c0-.01 0 0 0 0s-.01 0 0 0v-.05l.02-.05c0-.02 0-.05.02-.08a.9.9 0 0 0 .05-.2v-.01.01l-.02.02.01-.02a.79.79 0 0 1 .04-.11l.01-.05c0-.01 0 0 0 0v-.01l.01-.06v-.04l.01-.02s0-.03.01-.01c0 .01 0 0 0 0a.6.6 0 0 0 .03-.09c0-.01 0-.03.02-.04v-.04h.01l.02-.03.01-.03v-.02l.01-.02v-.02.02-.01l.03-.06a.62.62 0 0 0 .04-.08l.03-.06c0-.02 0 .01 0 0l.01-.03.02-.02v-.02a.02.02 0 0 1 .01-.02l.02-.02.01-.03.02-.03.03-.04a.29.29 0 0 0 .04-.06c0-.02.02-.02.03-.03a.2.2 0 0 0 .03-.07l.01-.01.02-.01.01-.02.03-.03.02-.02.02-.03v-.01l.03-.02a.37.37 0 0 0 .06-.07.46.46 0 0 1 .06-.06l.02-.01a.44.44 0 0 1 .08-.07c0-.01 0-.01 0 0v-.01c.04-.02.06-.06.1-.07l.08-.06a.54.54 0 0 1 .12-.08v-.01l.06-.03.03-.03.02-.01a.24.24 0 0 0 .08-.05.22.22 0 0 1 .06-.05.6.6 0 0 0 .08-.05l.12-.08a1.31 1.31 0 0 0 .2-.13l.08-.08.03-.01.04-.03c0-.01 0-.02.02-.02.01 0 0 0 0 0l.01-.02c.02 0 .03-.01.04-.03 0-.01.02-.02.02 0v-.01l.08-.07a.35.35 0 0 0 .06-.05.78.78 0 0 0 .13-.13v-.02l.01-.03.02-.02h-.02l-.06.06-.05.05-.02.01-.01.02a.47.47 0 0 1-.07.06.86.86 0 0 0-.07.06.28.28 0 0 1-.04.03l-.16.12-.03.02a1.1 1.1 0 0 0-.05.04.27.27 0 0 1-.06.04c-.01 0-.02 0-.03.02a1.12 1.12 0 0 0-.16.1l-.04.03-.07.04a.76.76 0 0 1-.07.05l-.07.05a.84.84 0 0 0-.09.06l-.09.05a.54.54 0 0 0-.06.05l-.1.07a.24.24 0 0 1-.06.04c0 .02-.03.03-.04.04l-.1.09a.47.47 0 0 0-.1.09.46.46 0 0 1-.05.05l-.04.05c-.02 0-.02.01-.02.02l-.03.03a.42.42 0 0 0-.09.12.26.26 0 0 1-.03.04l-.02.03-.02.01v.02-.01h.01a.35.35 0 0 0-.03.05v.01c-.01 0 0-.01 0 0l-.01.01-.01.02a.33.33 0 0 0-.05.09l-.03.07-.02.03a.09.09 0 0 0-.02.04l-.06.14-.03.08-.03.1v.01-.03.02l-.1.32-.03.14-.01.04-.03.14-.02.08-.01.04-.03.12v.05l-.01.02a.03.03 0 0 1 0 .03l-.02.07a.98.98 0 0 0-.02.13v.02l-.01.04-.02.12-.05.24-.03.15-.01.08-.04.16v.05l-.02.03v.04l-.03.08-.04.17s-.01.02 0 0a3.42 3.42 0 0 0-.04.11 1.36 1.36 0 0 1-.08.23.31.31 0 0 1-.05.1.65.65 0 0 1-.04.12l-.03.06-.04.08a.1.1 0 0 0-.01.04l-.01.02a.8.8 0 0 0-.07.12.47.47 0 0 1-.06.09l-.03.04-.02.01s0 .01 0 0h.01l-.01.02-.1.11a.15.15 0 0 1-.03.03v.01c0 .01 0 0 0 0v.03a.2.2 0 0 1-.05.04c-.03.03-.06.09-.05.1Zm1.62-4.47v-.02.02Zm-.31.57-.01.02a.69.69 0 0 0 .01-.03v.01Zm.04.05v-.01l.02-.01-.02.02Zm-.13.43v-.03.03Zm-.17.8v-.04.03Zm-.38 1.64v-.02l.02-.03v.02l-.02.03Zm-.05.12v-.02.02ZM43.46 83.55l.01-.01h.01v-.09l-.01-.01v-.02c-.01 0-.01 0 0 0h-.01v-.02s-.01 0 0 0v-.02c0 .01 0 0 0 0v-.01l-.01-.02h-.02v-.02l.01-.01v-.02c.01 0 0 0 0 0h-.02l.01-.03v-.04l-.02-.01v-.02l.02-.01c.02 0 0 0 0 0h-.01v-.02s-.01 0 0 0c.01-.01 0 0 0 0v-.01c.01 0 .02-.01 0-.02v-.04l-.01-.01h-.01v-.02l.02-.01s-.01 0 0 0c0 0-.01 0 0 0v-.01s0-.01 0 0v-.02l.01-.01a.02.02 0 0 0 0-.03c0-.01 0 0 0 0s0-.01 0 0c0 0-.01 0 0 0v-.03h.01-.01v-.02h-.01c.01 0 0 0 0 0 .02 0 0 0 0 0l.01-.02v-.01h.02-.02v-.04h.01s.01 0 0 0v-.01c.01 0 0 0 0 0v-.01h.01v-.05c.01 0 0 0 0 0s0-.01 0 0v-.02s-.01 0 0 0v-.04c.01 0 0 0 0 0v-.01c.01 0 0 0 0 0v-.03h.02v-.03c.02 0 .01 0 .01-.01 0 0 .01 0 0 0 0 0 0-.01 0 0v-.02l.01-.02v-.01l.02-.03c0-.01.02-.02.01-.04l.01-.01c0-.01 0 0 0 0v-.02c.01 0 0 0 0 0l.01-.01v-.02l.01-.01v-.03c0-.01 0 0 0 0v-.02h-.03v.02l-.01.01v.02h-.02v.04h-.01v.02l-.01.01v.01c-.02.01-.01.02-.02.03v.04c-.02 0 0 .01-.01.01l-.01.02-.01.02v.01s-.02.01-.01.02v.02l-.01.03v.02l-.01.02c0 .01 0 0 0 0v.02s-.02.01 0 .02v.01l-.01.01v.01h-.01c-.01 0 0 0 0 0a.01.01 0 0 0 0 .02V82.98s-.01 0 0 0l-.02.05V83.17s-.01 0 0 0v.1l.01.01v.03l.01.01v.03l.01.03c.01 0 0 0 0 0v.02c.02 0 .02.02.01.04v.02c.02 0 0 .01.02.02 0 0 0 .02 0 0v.02h.01v.03c.02.01.01.02.01.02v.01c-.01 0 0 0 0 0v.04h.02c-.03-.04 0-.04 0-.05Zm-.13-.82Zm.07.13Zm0 .07Zm0 .14Zm.05.27c0-.01 0 0 0 0s.02 0 0 0Zm0 .02ZM47.55 81.27h.03s.03 0 .04-.03c.01-.02.01 0 .02 0l.02-.01.01-.02.01-.02.04-.04.01-.01.01-.01a.1.1 0 0 0 .05-.05l.02-.04c.01 0 0 0 0 0h.01l.01-.01V81l.03-.06s0-.02 0 0c0 .03 0 0 0 0l.01-.01a.1.1 0 0 1 .04-.07v-.01s0-.01 0 0l.01-.02v-.02.01h.01l.03-.07v.01h.01v-.02l.03-.06a.23.23 0 0 0 .02-.06v-.06.02-.03l.04-.07.02-.06s-.02 0-.01-.02l.02-.08.02-.07v-.02l.01-.02.02-.06c0 .01 0 0 0 0v-.05h-.01v-.02l.01-.07a.1.1 0 0 1 .03-.04v-.01l-.01-.02v-.02c-.01-.01 0 0 0 0l.01-.03v-.02h.01v-.02c.02-.03.02-.03 0-.07a.1.1 0 0 0 .01-.04l.01.01v-.09a.02.02 0 0 1 0-.03v-.08c-.01 0 0 0 0 0v-.03h-.01a.02.02 0 0 1 0-.02l.02-.02v-.03.01c0 .01-.01 0 0 0v-.04s-.01 0 0 0v-.2a.2.2 0 0 1 0-.05c-.01 0 0 0 0 0v-.11h-.01v-.03l-.01-.02c-.01 0-.01 0 0 0a.02.02 0 0 0 0-.02V79c.01 0 0 0 0 0v-.16l-.01-.01v-.03.01-.1l-.01-.04c0-.01.01 0 0 0v-.02a.02.02 0 0 1 0-.02c.02 0 0-.01 0-.01V78.43l-.01-.04V78.28c-.01 0 0 0 0 0v-.09l-.01-.05v-.08s0-.01 0 0v-.08l.01-.06V77.72a.1.1 0 0 0 .01-.06v-.11l.02-.1v-.05l.02-.1c0-.02.01-.05 0-.07a.02.02 0 0 1 .01-.02l.01-.03v-.02c.01 0 0 0 0 0v-.01l.02-.04s0-.01 0 0v-.02a83.5 83.5 0 0 0 .06-.23l-.01-.02v-.03h-.01l-.03.06a.2.2 0 0 0-.01.04v.02l-.02.01-.01.06-.02.06v.04l-.04.13v.02l-.01.05-.01.05-.01.02v.04c-.02.03-.02.06-.02.09l-.01.03v.05a.3.3 0 0 1 0 .07v.05l-.01.07v.12c0 .03-.02.06-.01.09v.08a.7.7 0 0 1 0 .09v.08a.2.2 0 0 1 0 .05v.04l.01.02v.02l.01.1v.03l-.04-.01v.03-.02.04s.01 0 0 0v.09l.02.05-.01.02v.13l.02.05v.06-.02.22l.01.09v.03a.99.99 0 0 0 0 .14l-.01.02V79.55l-.01.04V79.8l-.02.15c0 .03 0 .06-.02.1v.05a.85.85 0 0 1-.03.12v.05l-.02.05-.02.1s0 .01 0 0v.02h-.01l-.01.05a.44.44 0 0 1-.05.13v.01a.1.1 0 0 1-.03.06c0 .03-.03.05-.03.07l-.02.04-.02.05v.02l-.02.02a.25.25 0 0 0-.05.07c0 .03-.02.03-.03.05l-.02.03h-.01c0-.01 0 0 0 0l-.07.08-.01.01c0 .01 0 0 0 0v.02c0 .01 0 0 0 0v.01l-.03.03a.08.08 0 0 0-.02.04v.05Zm.51-2.86v-.01.01Zm.03.4v.02-.03.01Zm.08 0v-.01.01Zm.02.29v-.01.01Zm0 .52v-.02.02Zm-.18 1.07v-.02l.01-.01v.01l-.01.02Zm-.04.07ZM45.6 83.71h.04a.21.21 0 0 0 .04-.04h.02l.04-.04.01-.02.05-.05.02-.01v-.01a.15.15 0 0 0 .06-.06c0-.02.02-.03.03-.04.01 0 0 0 0 0l.03-.01v-.01c-.01 0-.02 0-.01-.02l.04-.05s.01-.02.01 0v-.03a.14.14 0 0 1 .06-.06v-.02l.02-.02.05-.07v.01a.03.03 0 0 0 .02-.02l.03-.06a.3.3 0 0 0 .03-.07c0-.02 0-.04.02-.06v.02l.01-.03a.3.3 0 0 1 .05-.08.7.7 0 0 0 .04-.06c-.01 0-.02-.01-.01-.03a.26.26 0 0 1 .04-.08.42.42 0 0 0 .04-.06v-.03l.01-.02a.7.7 0 0 0 .03-.07l.01-.05v-.03a.2.2 0 0 1 .03-.07c0-.02.02-.04.04-.05v-.02c-.02-.01 0-.02 0-.03 0-.01 0 0 0 0s.02-.01.02-.03l.01-.03.01-.02c.03-.03.03-.03.02-.07l.02-.04v-.01.01l.01-.06v-.05l.01-.02h.01V81.84l.01-.03v-.02l.01-.01.02-.04v-.01.02-.01l.01-.03v-.02s0 .01 0 0c0 0 0-.02.02-.03v-.04l.02-.05a.31.31 0 0 0 .03-.09v-.05l.01-.01-.01.02v-.01a.4.4 0 0 1 .03-.09l.01-.03c0-.01 0 0 0 0-.01 0-.02 0-.01-.01v-.08c.01-.01 0-.03.02-.01v-.01a.2.2 0 0 0 .01-.06l.01-.03v-.03c.02 0 .02-.02.02-.03l.01-.02V81c0 .01 0 0 0 0v-.04a.24.24 0 0 0 .02-.06l.01-.05h.01v-.03c0-.01.02-.02.01-.03l.02-.03v-.05l.01-.03a3.96 3.96 0 0 1 .02-.14.02.02 0 0 1 0-.03c.01 0 .02 0 .01-.01l.01-.03V80.4l.01-.02c0-.03.01-.05 0-.07l.02-.06v-.02l.02-.07v-.01c.02-.03 0-.07.03-.09l.02-.07.02-.1v-.02l.02-.04a.03.03 0 0 0 0-.04v-.01a.13.13 0 0 0 .02-.07c0-.02 0-.04.02-.06a.3.3 0 0 0 .02-.07l.03-.1a.1.1 0 0 0 .02-.07.94.94 0 0 0 .03-.11l.02-.08v-.01l.01-.01.01-.04v-.02h.01v-.01l.02-.02v-.04l.03-.07.01-.06.02-.03a.56.56 0 0 0 .03-.1v-.06h-.02l-.03.07-.02.05h-.01v-.02l-.02.02a.2.2 0 0 1-.02.06l-.02.07-.02.04-.05.14a2.17 2.17 0 0 0-.06.2 10.75 10.75 0 0 1-.04.14l-.02.05c0 .03 0 .05-.02.07v.07a.5.5 0 0 0-.03.07.42.42 0 0 0-.02.07.4.4 0 0 0-.02.06l-.02.1-.02.05v.03l-.02.1-.02.1c0 .01 0 .03-.02.05l-.01.04v.01a.01.01 0 0 0 0 .01v.03a.24.24 0 0 0-.03.1l-.01.05v.02l-.02.01v.02-.02h.01V80.69h-.01v.01a.02.02 0 0 1 0 .02.16.16 0 0 0-.02.07v.05a.04.04 0 0 1-.01.03l-.01.03-.02.1v.07l-.02.07v.01-.02.01l-.06.23-.01.1-.02.04-.03.1v.05c0 .02-.01.02-.02.03a.7.7 0 0 0-.04.12v.03a.1.1 0 0 0-.02.05l-.02.07v.03s-.02 0-.01.01v.03l-.03.08a99.15 99.15 0 0 0-.09.26l-.02.06a1.11 1.11 0 0 1-.05.14c0 .01 0 .02-.02.03v.02l-.03.06-.05.1v.03h-.01a.63.63 0 0 1-.1.2v.02l-.05.06c0 .03-.03.05-.04.08l-.01.02-.02.01v.01c0 .02-.02.04-.03.05a.04.04 0 0 0-.01.03l-.01.02a.3.3 0 0 0-.06.08.2.2 0 0 1-.05.05.01.01 0 0 0 0 .01l-.01.02h-.02l-.01.01v.01a.74.74 0 0 0-.08.08l-.02.02c0 .01 0 0 0 0v.04l-.03.03c-.04.01-.05.06-.05.06Zm1.24-3.17v-.02.02Zm-.08.46V81c-.01 0 0 0 0 0v-.02Zm.07.03V81v.02Zm-.07.33v-.03.03Zm-.14.57v-.02.02Zm-.45 1.14v-.01l.01-.01.01-.01v.01s0 .03-.02.02Zm-.05.08v-.02.03-.01ZM48.57 77.72h.01l.01-.01h.01v-.02h.02v-.02l.01-.03c.02-.01.02-.02.02-.03v-.01h.01c0-.01 0-.01 0 0l-.01-.01v-.02s.01 0 0 0c0 0 .01 0 0 0 0-.02 0-.02.02-.03v-.01l.01-.02h.01v-.02l.01-.02v-.05c.02 0 .01-.01.02-.02h-.02l.02-.03v-.03l.02-.02h-.01v-.01h-.01v-.03l.02-.01c.01 0 .01 0 0 0v-.02h.01v-.01c.02-.02.02-.01 0-.03h.01v-.01l.01-.02v-.01l.01-.01v-.02h-.01v-.01l.02-.02h.01c0-.01 0 0 0 0v-.03l.01-.01.01-.01v-.02l.01-.01h-.01l.02-.02v-.04s-.01 0 0 0c0 0 0-.01 0 0 0 0 .02-.01.01-.02.01 0 .02-.01 0-.02h.02v-.05l.01-.02h.01c.01 0 .01 0 0 0v-.01c.02 0 .01 0 .01-.02v-.01l.01-.02h.01v-.03s0-.01 0 0l.01-.01v-.04l.01-.02s0-.02.02-.02h-.01l.01-.03.02-.01v-.03l.01-.02v-.01s.02-.01.01-.02v-.02l.02-.02.01-.03.01-.01.02-.03v-.03l.01-.01v-.02h.01l.01-.02v-.02h.01V76.28h-.01l-.01.01-.01.01c0 .02-.01.02-.02.03a.03.03 0 0 0 0 .01l-.02.01-.01.05-.01.02a.02.02 0 0 1-.01 0v.01a.01.01 0 0 1-.01.01l-.02.03v.01l-.01.02v.02l-.01.02-.01.02-.02.02v.01l-.02.03v.02s0 .02-.02.03v.03l-.01.01-.01.01v.02s-.02.02-.01.03v.01h-.01v.03h-.01v.03l-.01.01-.01.02-.01.03v.02l-.01.02v-.01l-.03.07-.01.03h-.01l-.01.03v.02h-.01a.08.08 0 0 0-.02.04v.03l-.01.02h-.01v.04c-.02.01-.02.03-.03.05v.03c-.02 0 0 .01-.01.02l-.01.03v.03l-.01.01-.01.04c.01 0 0 0 0 0v.02a.1.1 0 0 1-.03.05v.02l-.01.03v.04c-.01.01-.02.02-.01.03l-.01.03h-.01c0 .01 0 0 0 0v.04l-.01.01h.01c0 .01 0 0 0 0v.02h.03Zm.28-.97Zm-.04.13c-.01 0 0 0 0 0Zm.06.02Zm-.04.09Zm-.05.16Zm-.09.33v-.01c.01 0 0 0 0 0s.02 0 0 .01Zm0 .02Z"/><path fill="#4658DF" d="M44.4 83.85h.02l.04-.04h.01l.02-.02v-.02l.01-.02a4.35 4.35 0 0 1 .1-.16l.02-.01v-.03c0-.01 0-.03.02-.05 0 0 0-.01 0 0l.01-.02.01-.03.02-.02v-.02h.01v-.02h.01l.03-.06v.02l.01-.01v-.01a.13.13 0 0 1 .03-.06.21.21 0 0 0 .02-.05c0-.02 0-.04.02-.06v.02-.02l.04-.07.03-.05c-.02-.01-.02-.02-.01-.03a.2.2 0 0 1 .04-.07.57.57 0 0 0 .02-.05l.01-.03v-.01a.5.5 0 0 0 .03-.06v-.05a.02.02 0 0 0 .01 0v-.01c-.02 0 0 0 0-.02l.02-.05.02-.02.01-.02v-.05h.01l.02-.01a.06.06 0 0 1 0-.03v-.02c.03-.03.03-.03.03-.06v-.04l.01-.01v.01l.02-.05v-.05l.02-.01v-.1l.01-.02.01-.02.01-.02h-.01l.01-.02a.02.02 0 0 0 0-.02l.01-.02.01-.04.02-.04a.28.28 0 0 0 .02-.08v-.05.01c-.01 0 0 0 0 0 0-.03.01-.05.03-.07v-.03s-.01 0 0 0v-.07c0-.01 0-.02.01-.01l.02-.06v-.02s.02-.02 0-.03h.01l.02-.02v-.05c-.01 0 0 0 0 0v-.03a.2.2 0 0 0 .02-.06l.01-.04h.01v-.02h.01v-.03c.02-.01.02-.02.02-.04v-.02l.02-.02v-.02l.01-.02.02-.02v-.05l.01-.02s.01 0 0 0c0-.02.01-.03.02-.03v-.02s.02-.01.01-.02l.02-.02c0-.01 0-.03.02-.05 0-.02 0-.03.02-.04l.04-.05v-.01s0-.01 0 0v-.01l.04-.05.03-.03a.16.16 0 0 1 .05-.06v-.02l.03-.02.01-.02v-.01l.03-.01.01-.03.01-.02.02-.01.03-.04a.42.42 0 0 0 .06-.06l.03-.02a.41.41 0 0 0 .06-.07c0-.02.02-.03.03-.05h.01l.02-.03h.01v-.02c.01 0 .02-.01.02-.03h.01c0 .01 0 0 0 0l.04-.05.03-.03c0-.02.01-.02.02-.02a.3.3 0 0 0 .04-.07v-.04a.04.04 0 0 0 0-.02c0-.01 0-.01 0 0l-.04.04-.02.02s0 .01 0 0l-.01.02-.04.04a.15.15 0 0 0-.02.03c-.01.02-.02.02-.03.02l-.06.08-.02.01-.02.03-.03.03h-.01c0 .02-.02.02-.02.03-.02 0-.04.03-.05.05l-.02.02-.03.03a.28.28 0 0 1-.03.04c-.02 0-.02.03-.03.04a.24.24 0 0 0-.04.04c-.02 0-.02.02-.04.03a.2.2 0 0 0-.03.04l-.05.05-.02.04c0 .02-.01.02-.02.03a.6.6 0 0 1-.04.07.28.28 0 0 0-.04.08l-.03.04s0 .02-.02.03v.02l-.01.03c-.02.02-.04.05-.04.08l-.01.04v.01l-.02.01v.02-.01.04h-.01v.02a.14.14 0 0 0-.03.06v.04c0 .02-.01.02-.02.03v.02c-.01.03-.03.06-.03.1v.05l-.03.06v-.02.02l-.05.2-.02.07-.01.03a1.05 1.05 0 0 0-.03.13l-.01.02a.67.67 0 0 0-.03.1v.03a.08.08 0 0 0-.01.04l-.02.06v.04l-.01.01-.02.06-.05.14c0 .03-.02.05-.03.08l-.02.05a1.47 1.47 0 0 1-.04.11l-.01.02-.01.03-.02.04-.04.1v.01h-.01l-.02.05a.59.59 0 0 1-.06.13l-.02.03-.01.03c0 .03-.03.04-.03.07l-.02.03c0 .03-.01.04-.02.05v.03l-.01.01a.2.2 0 0 0-.04.08l-.03.05c0 .02-.01.02-.02.03 0-.01 0 0 0 0-.01 0 0 0 0 0v.01c-.03.02-.03.05-.05.07l-.01.02c0 .01 0 0 0 0v.03-.01.02a.1.1 0 0 1-.02.03v.03a.1.1 0 0 0 0 .04Zm.98-2.7v-.02.01Zm-.13.38v.01-.02.01Zm.06.03v-.01h.01Zm-.06.26v-.02.02Zm-.11.48v-.02.01Zm-.37.97v-.02h.01v-.01.02Zm-.03.07a.01.01 0 0 1 0-.02v.01ZM49.41 73.86h-.02l-.02.03-.02.02v.02a2.98 2.98 0 0 1-.03.05V74l-.02.05v.03c-.01 0 0 0 0 0h-.02v.01c.01 0 .01 0 0 0v.05h-.01v.04l-.02.02v.02h-.01l-.01.04h-.01a.07.07 0 0 1-.01.05l-.01.04v.04-.01.01l-.02.06-.02.03.01.02c0 .02 0 .04-.02.06v.04l-.01.01v.01l-.01.05v.09l-.01.02h-.02v.01l.01.02v.01c0 .01 0 0 0 0l-.01.02v.03c-.01.02-.02.02 0 .05l-.01.02v.01c0-.01 0 0 0 0V75l-.01.02v.03l.01.01v.05l-.01.02v-.01.11l-.01.05v.04-.01h.01l-.01.06v.04l.01.01v.06l-.01.02v.02l-.01.02v.03h.01v.06l-.01.03v.02c-.02 0-.01.01-.01.02v.04l-.01.02a.05.05 0 0 0 0 .03l-.01.02a.05.05 0 0 0 0 .03v.02l-.01.02v.03l-.01.01-.01.04-.01.03-.03.04c0 .01 0 .01 0 0v.01s0 .03-.02.04c0 .01 0 .02-.02.03a.1.1 0 0 1-.03.05l-.01.02-.01.02-.02.02v.02l-.01.01-.01.01-.03.03a.28.28 0 0 0-.03.05l-.02.02a.26.26 0 0 0-.04.05l-.02.04v.01c-.02 0-.01.01-.02.02v.01l-.02.02c0 .01 0 .02 0 0l-.03.04-.01.03-.01.02-.02.05v.02a.02.02 0 0 0 0 .02l.03-.03v-.02h.01l.01-.01c0-.02.01-.02.02-.03l.02-.03.01-.02.04-.06.01-.01.02-.02c0-.01 0-.02.02-.02v-.01l.02-.02.03-.04.01-.01.02-.03.02-.03.02-.03a.16.16 0 0 0 .02-.03l.03-.03.02-.03c0-.02.02-.03.03-.04l.01-.03v-.02l.03-.06.02-.05.02-.04v-.04l.01-.01c0-.03.02-.04.01-.07l.01-.02v-.05s0-.01 0 0h.01v-.1l.01-.02v-.01l.01-.07v-.08s0 .01 0 0l.01-.14v-.08a.61.61 0 0 0 0-.1h.01a.38.38 0 0 0 0-.08v-.02a.04.04 0 0 0 0-.03v-.05h.01v-.07l.02-.1.01-.06v-.03a.8.8 0 0 1 .03-.1v-.02l.01-.04.02-.06s0-.01 0 0v-.02l.01-.03.03-.09v-.03l.02-.02v-.06l.02-.02v-.06a.12.12 0 0 0 .03-.06l.01-.04.01-.02c0-.01 0 0 0 0v-.01l.03-.06v-.01c0-.01 0 0 0 0v-.1Zm-.32 1.98Zm.03-.29v.01Zm-.06 0Zm.01-.2v.02-.01Zm0-.34.01.01Zm.14-.7v.01c-.01 0 0 0 0 0v-.01Zm.01-.06v.01Z"/><path fill="#F283C5" d="M51.88 81.67c-.05-2.42-1.81-3.37-2.8-3.3 0 0 .52 7.3 2.26 12.03 1.17 3.2 4.74 7.3 4.74 7.3l.66 1.7.9 1.14.4.64-.16-1.74 2.39 2c1.07-.03-.03-2.77-.41-3.03-.39-.26-1.53-.94-2.13-1.46l-3.96-7.9c-.44-1.48-1.84-5.45-1.89-7.38Z"/><path fill="#A31F81" d="m52.29 84.1-2.37.79c.34 1.87.8 3.85 1.41 5.51 1.18 3.2 4.74 7.3 4.74 7.3.02.05-.43-.91-.81-1.44a42.47 42.47 0 0 1-3.27-5.66c-.17-.41 0-.76.15-1.04.14-.28.25-.49-.05-.63-.47-.23-.6-1.2-.62-1.65.59-.97.87-1.9.98-2.55l-.16-.63Z"/><path fill="#401279" d="M58.14 92.01s-1.75-11.4-7.05-12.3l-.8.24s2.85 2.33 4.15 4.8c1.34 2.53 1.97 7.75 1.97 7.75l1.73-.49ZM44.4 93.85l1.48.14 1.44-6.23c.67-2.86 1.38-5.45 2.06-8.26a2.36 2.36 0 0 0-1.52.26c-.32.18-.63.6-.68.91"/><path fill="#E8B536" d="M40.89 100.24c-.74-3.77 1.79-6.86 2.46-8.27 1.32-2.76.6-3.46.42-4.92-.18-1.5-1.18-6.15.18-7.82 1.4-1.7 5.13-1.41 5.84-.75a9.58 9.58 0 0 1 2.52 4.05c.56 1.8-.28 3.01-.98 4.16-.76 1.23-.42 7.08 0 8.43l-2.94 1.9c.77 4.37 2.77 13.7 2.94 14.96a596.7 596.7 0 0 1 1.6 14.56c-.82 1.06-5.62 1.16-6.64.7-.43-4.46.05-13.13-.29-14.1-.42-1.23-4.64-10.51-5.11-12.9Z"/><path fill="#BC6C15" d="M44.02 90.14c.21-.95.07-1.56-.07-2.2-.07-.28-.13-.57-.17-.89l-.13-.83c-.2-1.26-.5-3.19-.37-4.79l2.61-.3c-.5 1.37-1.48 4.36-1.46 5.34 0 .23.02.45.05.68.08.77.17 1.64-.45 3Z"/><path fill="#F283C5" d="M41.74 82.04c1.65-2.8 2.73-3.36 3.67-3.19 1.88.35 0 3.7-1.08 5.24-.6.87-2.34 3.6-3.43 5.13-.36 1.24-2.73 6.3-4 8.58-.04.6.07 1.34.02 2.1-.06 1-.44 1.88-.9 1.85-.36-.02-.1-.72-.36-.99-.28.52-.67 1.59-1.09 1.9-.34.23-.89-.4-1.09-1.08-.2-.67.1-1.93.36-2.65a8 8 0 0 1 1.73-2.24c1.04-4.24 1.98-6.75 2.85-8.51.6-1.24 1.66-3.35 3.32-6.14Z"/><path fill="#A31F81" d="M43.72 85.1v-.08c-.97 1.17-3.07 3.54-3.68 3.61-.4.06-.27.15-.06.29.17.12.41.28.41.49 0 .39-1.8 5.11-2.62 6.87a69.43 69.43 0 0 0 3.2-7.07c.66-.92 1.56-2.3 2.3-3.42l.45-.69ZM37.46 96.87l-.03.07.03-.07ZM44.68 78.88c.43-.03 1.03.08 1.27.66.2.47-.09 1.59-.44 2.62.75-1.49 1.19-3.09-.08-3.32-.24-.04-.49-.04-.75.04Z"/><path fill="#F283C5" d="M47.37 79.8c-.69-.55-1.42-1.42-.86-1.63.78-.28 2.01-.25 2.52-.07.5.17 1.1 1.02 1.3 1.8.15.6.16 1.66 0 2.66-.66-.85-2.4-2.3-2.96-2.75Z"/><path fill="#A31F81" d="M49.31 78.26c.43.32.86 1 1.02 1.65.15.59.16 1.65 0 2.65a4.23 4.23 0 0 0-.06-.08c0-.83-.05-2.08-.21-2.75a3.72 3.72 0 0 0-.75-1.47Z"/><path fill="#F283C5" d="m53.5 78.08-.94 4.03-2.93-.82.9-5.1 2.98 1.89Z"/><path fill="#F283C5" d="M50.53 77.16c-.65-2.4 2.12-5.88 4.26-4.68 1.08-.08 1.6.9 1.67 2.41.14 3.66-1.27 5.55-2.7 5.57-1.9.02-2.94-1.65-3.23-3.3Z"/><path fill="#fff" d="M51.95 75.28s.5-.4.9-.28c0 0 .52.14.72.64a.8.8 0 0 1-.38.27.92.92 0 0 1-.5.04.83.83 0 0 1-.32-.09c-.2-.11-.34-.36-.42-.58Z"/><path fill="#10004F" d="M53.02 75.95a.42.42 0 0 0 .35-.48.41.41 0 0 0-.46-.36.42.42 0 0 0-.35.48c.03.23.24.39.46.36Z"/><path fill="#10004F" fill-rule="evenodd" d="M52.25 75c.26-.1.56-.1.82.01.26.11.46.32.57.6.02.03 0 .08-.04.1a.08.08 0 0 1-.1-.04.93.93 0 0 0-.5-.5.89.89 0 0 0-.98.19.08.08 0 0 1-.12 0 .08.08 0 0 1 0-.12c.1-.1.22-.18.35-.23Z" clip-rule="evenodd"/><path fill="#10004F" d="M54.24 77.1c0-.06-.06-.1-.12-.1s-.1.06-.1.12.05.1.11.1.11-.05.1-.12Z"/><path fill="#B30F3B" d="M52.86 77.83h.23l.2-.06c.05-.01.14-.04.26-.05l.17-.02c.05 0 .1.02.14.05a.4.4 0 0 1 .11.12.4.4 0 0 1 .3-.14c.1.02.2.07.3.15.15.1.2.2.31.23h.02v.01c.05.08-.21.51-.6.65a.92.92 0 0 1-.7-.06 1.64 1.64 0 0 1-.58-.61 2.8 2.8 0 0 1-.16-.27Z"/><path fill="#10004F" fill-rule="evenodd" d="M52.9 77.77a.07.07 0 0 0-.1 0 .07.07 0 0 0 .01.1l.04-.05-.04.06h.01a3.13 3.13 0 0 0 .18.14c.12.08.29.18.49.27.4.16.94.26 1.46-.06a.07.07 0 0 0 .02-.1.07.07 0 0 0-.09-.02c-.47.29-.96.2-1.34.05a2.57 2.57 0 0 1-.63-.38h-.01Z" clip-rule="evenodd"/><path fill="#fff" d="M54.68 75.7s.5-.38.87-.3c0 0 .57.04.77.54a.9.9 0 0 1-1.05.3.65.65 0 0 1-.15-.04.9.9 0 0 1-.44-.5Z"/><path fill="#10004F" fill-rule="evenodd" d="M55.01 75.36c.21-.08.44-.1.65-.05.2.06.37.16.52.3.09.1.16.22.22.35.02.04 0 .09-.04.1a.08.08 0 0 1-.1-.03.98.98 0 0 0-.63-.55.93.93 0 0 0-.86.23.08.08 0 0 1-.11 0 .08.08 0 0 1 0-.11c.1-.1.22-.18.35-.24Z" clip-rule="evenodd"/><path fill="#10004F" d="M54.72 74.65s.64-.34 1.18.04c.16.09.3.2.4.37.08.1.14.23.18.36a2.78 2.78 0 0 0-.5-.38c-.29-.18-.43-.27-.62-.26-.25.02-.37.19-.5.1a.33.33 0 0 1-.09-.1.38.38 0 0 1-.05-.13ZM51.5 74.81c.15-.21.36-.39.6-.5.23-.11.49-.16.75-.14 0 0 .81.1.87.28 0 0 0 .3-.1.32-.6-.4-1.63-.43-2.13.04ZM55.79 76.27a.4.4 0 0 0 .33-.46.4.4 0 0 0-.44-.35.41.41 0 0 0-.34.46.4.4 0 0 0 .45.35ZM54.44 75.58h-.04l.07 1.74s.15.1.24-.04c0 0-.18-1.2-.27-1.7Z"/><path fill="#A31F81" d="M49.64 77.9c-1.31-.33-1.74-1.64-1.97-1.98 0 0 .26 1.24.63 1.75.35.47 1.01 1.22 1.01 1.22l.33-1Z"/><path fill="#F283C5" d="M50.25 77.15c.45-.07.74-.64.64-1.27-.1-.64-.54-1.1-.99-1.02-.45.07-.73.65-.63 1.28.1.63.53 1.09.98 1.01Z"/><path fill="#10004F" fill-rule="evenodd" d="M50.07 76.51a.07.07 0 0 1-.08-.06l-.04-.35-.08-.7c0-.04.02-.07.06-.08.04 0 .07.03.07.06l.08.63.33-.05c.03 0 .07.03.07.06 0 .04-.02.08-.05.08l-.34.05.03.29c0 .04-.02.07-.05.07Z" clip-rule="evenodd"/><path fill="#F9B7DF" d="M64.45 75.27c-.13-.26-.25-.65-.44-1.03-.63-.13-1.56.38-1.88.96a3.34 3.34 0 0 1 1.88-.96 9.12 9.12 0 0 0-1.19-2.25c-2.56-2.12-5.94.07-6.32 2.83-.19 1.09 1.57 3.34 1.88 3.98l-1.13 3.92c1.38.32 3.88.83 3.88.83l.63-2.63c.37.13.81.2 1.25.26.75.13 1.19.13 1.62-.13.25-.2.5-.39.63-.7.19-.46.06-.78 0-1.42-.06-.58-.13-1.16-.06-1.74.44-.19.94-.45.87-.7 0-.13-.25-.2-.56-.39-.38-.19-.75-.51-1.06-.83Z"/><path fill="#1B0088" d="M62.2 75.2c.24-.58 1.18-1.1 1.87-.97-.06-.06-.06-.19-.12-.25-.63-.07-1.94.32-1.76 1.22ZM65.39 76.87c.06-.07.12-.2.06-.26s-.13-.06-.25 0c-.06.06-.13.2-.06.26.06.06.18.06.25 0ZM63.63 71.1c-.12.5-.62.9-1.12 1.15-.5.2-1.07.26-1.57.45-.06 0-.12.06-.18.13-.13.13-.07.38.06.58.5.96.81 2.12.25 3.01-.19.26-.38.45-.5.78-.13.32-.13.7-.25 1.02-.19.45-.69.71-1.19.84-.19.06-.44.06-.63 0-.12-.07-.25-.13-.37-.26a5.77 5.77 0 0 1-1.82-3.02c-.25-1.15.07-2.5.88-3.34.5-.51 1.19-.83 1.88-1.09a8.48 8.48 0 0 1 4.38-.26"/><path fill="#F9B7DF" d="M61.54 78.27c.53-.39.53-1.23.07-1.77-.46-.61-1.22-.77-1.75-.38-.54.38-.54 1.22-.08 1.76.46.62 1.22.77 1.76.39Z"/><path fill="#E55CB4" d="M65.32 78.09c.31-1.16-1-.26-1.31.06.12.13.25.26.44.32.12.07.3.13.43.13.2.07.38.07.44 0 .19-.13.13-.32 0-.51Z"/><path stroke="#1B0088" stroke-linecap="round" stroke-miterlimit="10" stroke-width=".16" d="M65.32 78.1c-.5.12-1.06.12-1.56.06"/><path fill="#fff" d="M62.45 75.52c.31-.58.81-.9 1.31-.77.25.06.44.19.63.38-.06.2-.19.32-.31.45-.13.13-.32.2-.5.26a.85.85 0 0 1-.57 0c-.25-.07-.37-.2-.56-.32Z"/><path fill="#E55CB4" d="M61.76 80.92s-.88-1.03-1.06-1.67c0 0-.63 1.35-.32 2.18l.76 2.12.62-2.63Z"/><path fill="#1B0088" d="M63.57 75.78c.31 0 .5-.26.5-.58 0-.32-.25-.51-.56-.51-.31 0-.5.25-.5.58 0 .32.25.51.56.51Z"/><path fill="#A7B1E9" d="M62.2 95.95c.74-4.05.74-5.27-.32-11.18-.69-3.66-4.75-3.73-5.75-2.5-3.57 4.17-4.13 10.27-4.57 15.22l10.07 5.2c-.13-1.92 0-3.6.56-6.74Z"/><path fill="#1B0088" fill-rule="evenodd" d="M56.57 75.2a.1.1 0 0 0 .04-.14.1.1 0 0 0-.13-.04l-.22.12-.11-.21a.1.1 0 0 0-.13-.04.1.1 0 0 0-.04.13l.33.6a.1.1 0 0 0 .13.04.1.1 0 0 0 .03-.13l-.11-.22.2-.12Z" clip-rule="evenodd"/></g><ellipse cx="79" cy="128.5" fill="#84B02C" rx="79" ry="3.16"/><rect width="11.91" height="6.55" x="111.51" y="80.19" fill="#1B0088" rx="3.28"/><rect width="11.91" height="5.36" x="110.92" y="80.19" fill="#2D34CE" rx="2.68"/><path fill="#CDD1F1" d="M3.55 86.74c2.55-5.1 9.1-12 11.29-13.1l-9.1 13.1H3.55Z"/><path fill="#DFE2F6" d="m92 70-23.3-.73 28.02 17.47 24.03-1.45L91.98 70Z"/><ellipse cx="59.24" cy="116.95" fill="#1B0088" rx="11.65" ry="12.01"/><circle cx="138.95" cy="116.95" r="12.01" fill="#1B0088"/><path fill="#10004F" d="M91.27 122.4H3.92L1 115.87h149.94c.6 2.33-.72 5.33-1.45 6.55H91.27Z"/><path fill="#2D34CE" d="m106.82 91.1-8.98-5.45L69.8 70c-8.73-4.74-16.37-4-27.66-3.64l1.1 2.87c16.6-3.2 32.63 7.4 38.57 13.1 4.48 4.3 5.1 8.78 7.65 12.78 2.55 4 1.94 5.62 1.82 10.92l-1.1 9.83h34.94l-3.22-13.54c-11.22-1.6-15.07-11.22-15.07-11.22Z"/><path fill="#DFE2F6" d="m45.33 87-.69-7.49c21.17-1.28 38.66 6.72 41.08 7.5h-40.4Z" opacity=".6"/><path fill="#4658DF" d="M13.74 74.43c5.83-4.8 20.75-8.07 29.49-8.07l5.1 49.5H1.73v-6.92l1.09-2.48V89.35l10.91-14.92Z"/><path fill="#4658DF" d="M84.72 86.73H44.68l2.19 29.12H89.8c6.92-14.92-5.1-29.12-5.1-29.12Z"/><path fill="#fff" d="M12.3 90.01c-2.2-3.28-6.8-3.28-8.74-3.28l-.73 2.55v5.83l7.28-.37 2.18-4.37s.2-.06 0-.36Z"/><path fill="#4658DF" d="m55.75 66.38-2.33-.03c.72-.05 1.5-.04 2.33.03l28.24.34c4.37 0 8.74 1.09 13.47 4.36l24.75 13.47c.85.6 2.18 1.1 3.27 1.46 5.46 1.09 16.3 3.8 19.3 5.45 3.4 1.56 7.74 4.37 9.45 12.38 1.1 5.1 1.61 8.3 1.46 12.01h-35.52c0-6.55-2.33-13.83-8.52-20.38-5.1-5.4-11.24-7.9-14.2-9.83l22.2-.73L91.64 70H69.8c-2.5-.94-9.03-3.21-14.05-3.61Z"/><path fill="#fff" d="M146.59 93.29c-.73 3.27.95 9.35 6.55 8.73-1.1-1.95-1.43-5.47-6.55-8.73Z"/><path fill="#1B0088" d="M31.22 122.78c-3.64 6.91-9.1 7.27-12 6.91 9.3-3.2 10.18-10.55 9.09-13.83h4c.3 2.62-.6 5.7-1.09 6.92ZM114.93 122.78c-3.5 7.27-13.83 8.37-15.29 7.27 9.32-3.2 12.02-10.92 10.92-14.2h5.1c.29 2.63-.24 5.71-.73 6.93Z"/><path stroke="#1B0088" stroke-linecap="round" stroke-width="2.03" d="M30.12 93.29h8M50.5 92.56h8.01"/><path fill="#DFE2F6" d="m40.32 86.74-1.46-17.1c-11.36.58-14.92 2.18-18.93 4.36-5.46 3.64-5.21 9.58-4.73 12.74h25.12Z"/><rect width="21.84" height="3.64" x="124.75" y="98.38" fill="#1B0088" rx="1.82"/><path fill="#1B0088" d="M152.46 105.66h-25.89c0 6.2 1.82 7.65 4.74 8.01h17.47c3.68 0 3.8-5.7 3.68-8Z"/><path fill="#2D34CE" d="M2.89 100.57h89.84v15.29H1v-6.71l1.88-2.99v-5.59Z"/><path stroke="#1B0088" stroke-linecap="round" stroke-width=".68" d="m45.41 88.55 2.55 25.12M14.84 88.2l1.1 14.92"/><path fill="#7F8DE4" d="M29.4 117.31c0 6.84-4.9 12.38-10.93 12.38-6.03 0-10.92-5.54-10.92-12.38 0-6.83 4.9-12.37 10.92-12.37 6.03 0 10.92 5.54 10.92 12.37Z"/><ellipse cx="17.75" cy="118.05" fill="#2D34CE" opacity=".5" rx="6.55" ry="7.28"/><ellipse cx="17.38" cy="118.04" fill="#10004F" rx="4" ry="4.37"/><path stroke="#1B0088" stroke-linecap="square" stroke-width="2.03" d="M6.83 114.4c.27-3.2 3.27-9.42 13.08-8.68 2.86.21 8.9 2.24 10.21 8.68l.37 2.18"/><ellipse cx="100.37" cy="118.41" fill="#7F8DE4" rx="10.55" ry="12.01"/><ellipse cx="100" cy="118.77" fill="#2D34CE" opacity=".5" rx="6.55" ry="7.28"/><ellipse cx="99.64" cy="118.77" fill="#10004F" rx="4" ry="4.37"/><path stroke="#1B0088" stroke-linecap="square" stroke-width="2.03" d="M89.09 115.13c.66-3.22 3.95-9.46 11.87-8.66 3.17.22 9.74 2.27 10.7 8.66"/><path stroke="#1B0088" stroke-linecap="round" stroke-width=".68" d="M87.27 90.74c1.7 2.3 6.18 8.74 2.9 20.02"/><path fill="#1B0088" d="M1.01 112.94h6.55v2.91H1.01zM30.12 112.94h58.96v2.91H30.12z"/><path fill="#4658DF" d="M110.35 99.11c-3.85-4.49-5.13-6.63-4.5-9.62 6.42 4.81 19.05 15 14.44 14.75-4.62-.25-6.1-1.28-9.94-5.13Z"/><path fill="#fff" d="M123.66 102.05c-1.45-9.32-11.64-11.19-16.74-10.94 0 2.33 4.86 7.88 7.64 10.19 1.75 1.74 6.92 1.1 9.1.75Z"/><rect width="14.56" height="8.01" x="73.79" y="83.83" fill="#1B0088" rx="4"/><rect width="14.56" height="6.55" x="73.06" y="83.83" fill="#2D34CE" rx="3.28"/><path fill="url(#b)" d="m100.72 74.78-3.16 10.67-9.08-5.14L91.6 70l9.12 4.8Z" opacity=".8"/><path fill="url(#c)" d="M28.05 70.83 15.4 86.63h10.66l12.64-16.98c-3.26.03-5.53.4-10.66 1.18Z" opacity=".8"/><defs><linearGradient id="b" x1="96.73" x2="97.73" y1="70.78" y2="88.34" gradientUnits="userSpaceOnUse"><stop stop-color="#FFFEFF"/><stop offset=".58" stop-color="#EFF0FB" stop-opacity=".3"/><stop offset=".99" stop-color="#E8EAF9" stop-opacity="0"/></linearGradient><linearGradient id="c" x1="31.84" x2="9.29" y1="65.11" y2="96.52" gradientUnits="userSpaceOnUse"><stop stop-color="#FFFEFF"/><stop offset=".58" stop-color="#EFF0FB" stop-opacity=".3"/><stop offset=".99" stop-color="#E8EAF9" stop-opacity="0"/></linearGradient><clipPath id="a"><path fill="#fff" d="M29.23 62.93h51.35v24.49H29.23z"/></clipPath></defs></svg>