<svg xmlns="http://www.w3.org/2000/svg" width="148" height="134" fill="none"><g clip-path="url(#a)"><path fill="#FFC700" d="M71.47.86a3 3 0 0 1 4.06 0l15.86 14.55a3 3 0 0 0 2.37.77l21.38-2.45a3 3 0 0 1 3.28 2.39l4.28 21.1a3 3 0 0 0 1.47 2l18.74 10.6a3 3 0 0 1 1.25 3.85l-8.94 19.58a3 3 0 0 0 0 2.5l8.94 19.58a3 3 0 0 1-1.25 3.85l-18.74 10.6a3 3 0 0 0-1.47 2l-4.28 21.1a3 3 0 0 1-3.28 2.39l-21.38-2.45a3 3 0 0 0-2.37.77l-15.86 14.55a3 3 0 0 1-4.06 0l-15.86-14.55a3 3 0 0 0-2.37-.77l-21.38 2.45a3 3 0 0 1-3.28-2.39l-4.28-21.1a3 3 0 0 0-1.47-2L4.1 99.17a3 3 0 0 1-1.25-3.85l8.94-19.58a3 3 0 0 0 0-2.5L2.84 53.67a3 3 0 0 1 1.25-3.85l18.74-10.6a3 3 0 0 0 1.47-2l4.28-21.1a3 3 0 0 1 3.28-2.39l21.38 2.45a3 3 0 0 0 2.37-.77L71.47.86Z"/><path fill="#2D34CE" d="M128.72 54.47H18.67v5.5h110.05v-5.5Z"/><path fill="#7F8DE4" d="M111.66 59.97H35.73v72.16h75.93V59.97Z"/><path fill="#4658DF" d="M102.71 62.38H44.66v69.75h58.05V62.38Z"/><path fill="#DFE2F6" d="M53.75 65h-6.2v11.26h6.2V65ZM89.24 65H58.22v11.26h31.02V65ZM53.75 79.9h-6.2v45.92h6.2V79.9ZM99.9 65h-6.2v11.26h6.2V65ZM99.9 79.9h-6.2v45.92h6.2V79.9Z"/><path fill="#2D34CE" d="M89.24 79.91H58.22v52.24h31.02V79.9Z"/><path fill="#DFE2F6" d="M86.42 82.67H60.98v43.16h25.44V82.67Z"/><path fill="#fff" d="M60.09 103.2a.6.6 0 0 1-.56.56.6.6 0 0 1-.55-.55.6.6 0 0 1 .55-.55c.28 0 .56.2.56.55ZM60.09 107.6a.6.6 0 0 1-.56.56.6.6 0 0 1-.55-.55.6.6 0 0 1 .55-.55c.28 0 .56.2.56.55Z"/><path fill="#fff" d="M59.67 103.48h-.41v4.13h.41v-4.13Z"/><g fill="#fff" opacity=".5"><path d="M86.42 82.66v10.79l-25.45 19.3v-17.8l16.23-12.3h9.22ZM47.56 75.84l6.19-4.75v5.16h-6.2v-.41ZM47.56 79.9h6.19v1.44l-6.2 4.68V79.9ZM75.36 64.98 60.43 76.26h-2.2v-8.53l3.65-2.75h13.48ZM53.75 64.98v.42l-6.2 4.67v-5.09h6.2ZM99.9 73.16v3.1h-4.06l4.06-3.1ZM93.71 79.9h6.2v3.5l-6.2 4.68V79.9ZM99.9 107.32v10.17l-6.19 4.74V112l6.2-4.67ZM53.75 101.68v10.17l-6.2 4.74v-10.24l6.2-4.67ZM89.24 64.98v6.95l-5.7 4.33H68.13l14.85-11.28h6.26ZM86.42 101.48v10.24L67.85 125.8h-6.88v-5.02l25.45-19.31Z" opacity=".5"/></g><path fill="#7F8DE4" d="M132.34 40.18H15.04A3.05 3.05 0 0 0 12 43.23v8.2a3.05 3.05 0 0 0 3.05 3.05h117.29a3.05 3.05 0 0 0 3.05-3.05v-8.2a3.05 3.05 0 0 0-3.05-3.05Z"/><path fill="#A7B1E9" d="M108.1 17H38.8a3.05 3.05 0 0 0-3.04 3.05v20.13h75.39V20.05A3.05 3.05 0 0 0 108.1 17Z"/><path fill="#fff" d="M50.58 31.95v-9.6h1.69v3.83h3.92v-3.84h1.69v9.6h-1.7v-4.2h-3.91v4.2h-1.7Zm14.87.16c-2.77 0-3.99-2.32-3.99-4.97 0-2.59 1.22-4.86 4-4.86 2.78 0 3.98 2.27 3.98 4.86 0 2.65-1.22 4.97-3.99 4.97Zm0-1.54c1.47 0 2.28-1.35 2.28-3.43 0-2-.8-3.33-2.28-3.33-1.5 0-2.26 1.33-2.26 3.33 0 2.08.77 3.43 2.26 3.43Zm9.74 1.38v-8l-2.62-.26v-1.35h6.94v1.35l-2.63.26v8h-1.7Zm7.57 0v-9.6h6.3v1.54h-4.62v2.3h4.2v1.53h-4.2v2.68h4.63v1.55h-6.31Zm9.86 0v-9.6h1.7v8.05h3.89v1.55h-5.59Z"/><path fill="#A7B1E9" d="M57.33 47v-.42l-2.55-.07-1.03-2.27-1.17 2.2-2.54-.07v.42l1.79 1.85-.42 2-.13.06v.48l2.34-1.16 2.2 1.23v-.41l-.07-.07-.28-2L57.33 47Z"/><path fill="#FCE790" d="m54.78 46.16 2.55.42-1.86 1.72.35 2.54-2.2-1.24-2.34 1.1.55-2.47-1.8-1.86 2.55-.27 1.17-2.27 1.03 2.33Z"/><path fill="#A7B1E9" d="M67.37 47v-.42l-2.54-.07-1.03-2.27-1.17 2.2-2.55-.07v.42l1.79 1.85-.41 2-.14.06v.48l2.34-1.16 2.2 1.23v-.41l-.07-.07-.27-2L67.37 47Z"/><path fill="#FCE790" d="m64.9 46.16 2.47.42-1.85 1.72.34 2.54-2.2-1.24-2.34 1.1.55-2.47-1.79-1.86 2.55-.27 1.17-2.27 1.1 2.33Z"/><path fill="#A7B1E9" d="M77.4 47v-.42l-2.55-.07-1.03-2.27-1.17 2.2-2.54-.07v.42l1.78 1.85-.4 2-.15.06v.48l2.34-1.16 2.2 1.23v-.41l-.07-.07-.27-2L77.4 47Z"/><path fill="#FCE790" d="m74.92 46.16 2.48.42-1.86 1.72.34 2.54-2.2-1.24-2.34 1.1.55-2.47-1.78-1.86 2.54-.27 1.17-2.27 1.1 2.33Z"/><path fill="#A7B1E9" d="M87.45 47v-.42l-2.55-.07-1.03-2.27-1.17 2.2-2.54-.07v.42l1.78 1.85-.4 2-.08.06v.48l2.27-1.16 2.2 1.23v-.41l-.07-.07-.27-2L87.45 47Z"/><path fill="#FCE790" d="m84.97 46.16 2.48.42-1.86 1.72.34 2.54-2.2-1.24-2.27 1.1.48-2.47-1.78-1.86 2.54-.27 1.17-2.27 1.1 2.33Z"/><path fill="#A7B1E9" d="M97.5 47v-.42l-2.55-.07-1.03-2.27-1.1 2.2-2.62-.07v.42l1.8 1.85-.42 2-.07.06v.48l2.27-1.16 2.2 1.23v-.41l-.07-.07-.27-2L97.49 47Z"/><path fill="#FCE790" d="m95.02 46.16 2.47.42-1.85 1.72.34 2.54-2.2-1.24-2.27 1.1.48-2.47-1.79-1.86 2.55-.27 1.17-2.27 1.1 2.33Z"/><path fill="#4658DF" d="M35.72 59.97H22.86v72.16h12.86V59.97ZM124.51 59.97h-12.86v72.16h12.86V59.97Z"/><path fill="#2D34CE" d="M111.15 38.53h-75.4v1.64h75.4v-1.64Z"/><path stroke="#1B0088" stroke-linecap="round" stroke-linejoin="round" stroke-width="3" d="M17 133h109M133 133h10"/></g><defs><clipPath id="a"><path fill="#fff" d="M0 0h148v126a8 8 0 0 1-8 8H8a8 8 0 0 1-8-8V0Z"/></clipPath></defs></svg>