<svg xmlns="http://www.w3.org/2000/svg" width="141" height="134" fill="none"><circle cx="67" cy="67" r="67" fill="#BDE0F0"/><path fill="#84BDD9" fill-rule="evenodd" d="M45.78 31.74a7.65 7.65 0 0 0-14.68-3.92 5.54 5.54 0 0 0-8.56 1.03 5.54 5.54 0 0 0-9.14 1.1 2.22 2.22 0 0 0-3.94 1.39H5.54a3.54 3.54 0 0 0 0 7.09h34.32a5.92 5.92 0 0 0 5.92-5.92v-.77ZM97.08 54.74a7.65 7.65 0 0 1 14.68-3.92 5.54 5.54 0 0 1 8.56 1.03 5.54 5.54 0 0 1 9.14 1.1 2.22 2.22 0 0 1 3.94 1.39h3.91a3.54 3.54 0 1 1 0 7.09H103a5.92 5.92 0 0 1-5.92-5.92v-.77Z" clip-rule="evenodd"/><path fill="#10004F" d="M38.1 129.85a2.19 2.19 0 0 1-.51-.69c-.33-.7-.18-1.38-.51-1.52-.06-.02-.14-.04-.26 0v3.06c-.02 0 .63-1.12 1.28-.85Z"/><path fill="#10004F" d="M38.1 131.96a1.28 1.28 0 1 0 0-2.54c-.7 0-1.28.56-1.28 1.26s.57 1.28 1.28 1.28Z"/><path fill="#885AF5" d="M38.1 131.2a.51.51 0 1 0 0-1.03.51.51 0 0 0 0 1.03Z"/><path fill="#10004F" d="M32.51 129.85a2.19 2.19 0 0 1-.51-.69c-.33-.7-.18-1.38-.51-1.52-.06-.02-.14-.04-.26 0v3.06c-.02 0 .63-1.12 1.28-.85Z"/><path fill="#10004F" d="M32.51 131.96a1.28 1.28 0 1 0 0-2.54c-.7 0-1.28.56-1.28 1.26s.57 1.28 1.28 1.28Z"/><path fill="#885AF5" d="M32.51 131.2a.51.51 0 1 0 0-1.03.51.51 0 0 0 0 1.03Z"/><path fill="#10004F" d="M17.3 129.9c.16-.14.35-.38.5-.68.34-.7.18-1.38.51-1.52.06-.03.14-.04.25 0v3.05c-.01 0-.63-1.1-1.27-.84Z"/><path fill="#10004F" d="M17.3 132.01a1.27 1.27 0 1 0 0-2.54 1.27 1.27 0 0 0 0 2.54Z"/><path fill="#885AF5" d="M17.3 131.25a.51.51 0 1 0 0-1.02.51.51 0 0 0 0 1.02Z"/><path fill="#1B0088" d="M38.67 92.24h-7.74c.07 1 .14 2.35.16 3.57 0 .07.02.14.04.16.04.11.08.22.1.36v24l-.14 1.14-.06.45-.03.61c.09.32.15.65.21.98l.01.11v4.58h7.46a3.19 3.19 0 0 0 3.17-3.18v-29.6a3.2 3.2 0 0 0-3.18-3.18Z"/><path fill="#2D34CE" d="M32.77 128.21H14.73c-.96 0-1.73-.77-1.73-1.73V93.97c0-.95.77-1.73 1.73-1.73h18.04c.95 0 1.73.78 1.73 1.73v32.5c0 .95-.78 1.74-1.73 1.74Z"/><path fill="#4658DF" d="M38.5 126.16h-.92a.55.55 0 0 1-.56-.55V94.87c0-.3.25-.55.56-.55h.92c.3 0 .55.25.55.55v30.73c0 .3-.25.56-.55.56Z"/><path fill="#7F8DE4" d="M32.36 93.77c-.58.42-1.04.99-1.41 1.61a6.9 6.9 0 0 0-.76 2l-.06.27-.03.14v.13l-.06.54c-.02.36-.03.72-.02 1.08l.02 2.17c.02 2.89 0 5.78.02 8.67l-.02 8.66-.02 2.17c-.01.72.07 1.44.2 2.14.27 1.41.81 2.8 1.73 3.9a6.96 6.96 0 0 1-1.18-1.81 10.35 10.35 0 0 1-.93-4.23l-.01-2.17c-.03-2.89-.02-5.78-.03-8.67l.03-8.66.01-2.17c0-.36.02-.72.04-1.09.05-.36.09-.72.17-1.08.16-.7.44-1.4.81-2 .42-.65.9-1.2 1.5-1.6ZM29.59 93.59c-.58.42-1.04 1-1.4 1.61a6.9 6.9 0 0 0-.77 2l-.05.27-.03.14-.01.14c-.02.17-.05.35-.06.53-.01.36-.03.72-.01 1.08l.01 2.17c.03 2.89.01 5.78.03 8.66l-.03 8.67-.01 2.17c-.02.72.07 1.44.2 2.14.27 1.41.8 2.8 1.73 3.9a6.96 6.96 0 0 1-1.19-1.81 10.35 10.35 0 0 1-.93-4.23v-2.17c-.03-2.89-.02-5.78-.03-8.67 0-2.88 0-5.77.02-8.66l.02-2.17c0-.36.01-.72.04-1.09a6.87 6.87 0 0 1 .98-3.08c.41-.64.9-1.19 1.49-1.6ZM26.55 93.84c-.58.43-1.04 1-1.41 1.62a6.9 6.9 0 0 0-.76 2l-.06.27-.02.13-.02.14-.05.54c-.02.36-.03.72-.02 1.08l.02 2.17c.02 2.89.01 5.77.02 8.66 0 2.9 0 5.78-.02 8.67l-.02 2.17c-.01.71.07 1.43.21 2.14.26 1.4.8 2.79 1.73 3.9a6.96 6.96 0 0 1-1.2-1.81 10.35 10.35 0 0 1-.93-4.23v-2.17c-.03-2.9-.01-5.78-.03-8.67l.03-8.66.01-2.17c0-.36.02-.72.04-1.1.05-.35.09-.71.17-1.07.17-.7.44-1.4.82-2 .4-.65.88-1.2 1.49-1.6ZM23.76 93.84c-.58.43-1.04 1-1.41 1.62a6.9 6.9 0 0 0-.76 2l-.06.27-.02.13-.02.14-.05.54c-.02.36-.03.72-.02 1.08l.02 2.17c.03 2.89.01 5.77.03 8.66l-.03 8.67-.02 2.17c-.01.71.07 1.43.21 2.14.26 1.4.8 2.79 1.73 3.9a6.96 6.96 0 0 1-1.19-1.81 10.35 10.35 0 0 1-.93-4.23v-2.17c-.04-2.9-.02-5.78-.04-8.67l.03-8.66.01-2.17a9.7 9.7 0 0 1 .2-2.17c.18-.7.45-1.4.83-2 .4-.65.88-1.2 1.49-1.6ZM20.72 93.84c-.58.43-1.04 1-1.41 1.62a6.9 6.9 0 0 0-.76 2l-.05.27-.03.13-.02.14-.05.54c-.01.36-.03.72-.01 1.08v2.17c.04 2.89.02 5.77.04 8.66l-.03 8.67-.01 2.17c-.02.71.06 1.43.2 2.14.26 1.4.8 2.79 1.73 3.9a6.96 6.96 0 0 1-1.19-1.81 10.35 10.35 0 0 1-.93-4.23v-2.17c-.04-2.9-.02-5.78-.04-8.67l.03-8.66.02-2.17c0-.36 0-.72.04-1.1.04-.35.08-.71.16-1.07.17-.7.44-1.4.82-2 .4-.65.88-1.2 1.49-1.6ZM17.68 93.84c-.58.43-1.03 1-1.4 1.62a6.9 6.9 0 0 0-.76 2l-.06.27-.03.13-.01.14-.06.54c-.01.36-.02.72-.01 1.08l.01 2.17c.03 2.89.02 5.77.03 8.66l-.03 8.67-.01 2.17c-.01.71.07 1.43.2 2.14.27 1.4.8 2.79 1.73 3.9a6.96 6.96 0 0 1-1.18-1.81 10.35 10.35 0 0 1-.93-4.23l-.01-2.17c-.03-2.9-.02-5.78-.03-8.67l.03-8.66.01-2.17c0-.36.01-.72.04-1.1.04-.35.08-.71.17-1.07.16-.7.44-1.4.81-2 .4-.65.89-1.2 1.5-1.6Z"/><path fill="#4658DF" d="M25.01 84.59h-.88v7.64H25v-7.64ZM34.7 84.62h-.88v7.64h.88v-7.64Z"/><path fill="#1B0088" d="M25.14 84.38h-.25v7.85h.25v-7.85ZM34.74 84.38h-.24v7.85h.24v-7.85Z"/><path fill="#1B0088" d="M24.13 84.59v-1.45S24 81.9 25.33 82h8.23s1.2-.05 1.2 1.3v1.3l-10.63-.02Z"/><path fill="#A7B1E9" d="M44 62.13s-.75 9.53-.66 19.91c.1 11.26 1.12 38.63 1.67 39.44.54.81 5.14.68 5.41 0 .28-.68 2.02-45.91 2.9-46.05.38-.06.98 6.27 3.41 17.16.95 4.23 1.73 5.11 1.36 6.9-1.03 4.98 3.17 22.37 3.3 22.55.28.39 4.6.7 4.75 0 .14-.7-.04-21.05.02-25.8.02-2.23-1.82-26.62-3.8-32.61-.54-1.6-18.36-1.5-18.36-1.5Z"/><path fill="#F283C5" d="M63.98 67.48s.96 1.44.91 2.83c-.05 1.38-1.6 1.33-1.76 2.93-.16 1.6-.25 4.7-.22 5.65.02.7 1.18.38 1.4-.47.2-.86.58-2.83.58-2.83s-.58 5.45 0 6.09c.59.64 1.17.27 1.28 0 .1-.28.21-1.71.75-2.78.53-1.07 1.06-3.95 1.17-6.67.1-2.72 0-4.54 0-4.54l-4.1-.21Z"/><path fill="#B30F3B" d="M63.3 79.11c-.1 0-.2-.02-.28-.08a.09.09 0 0 1-.02-.12.08.08 0 0 1 .08-.03l.03.02a.35.35 0 0 0 .33.02c.2-.09.4-.52.38-1-.02-.43-.77-.46-.78-.46a.08.08 0 0 1-.07-.02.09.09 0 0 1-.03-.07.08.08 0 0 1 .06-.08h.04c.04 0 .91.03.94.62.02.52-.2 1.04-.48 1.16a.51.51 0 0 1-.2.04ZM66.5 79.72a.08.08 0 0 1-.07-.09 23.25 23.25 0 0 0 .2-3.91l.03-.02a.08.08 0 0 1 .12.09 23.3 23.3 0 0 1-.19 3.87.08.08 0 0 1-.1.06ZM65.53 81.89a.09.09 0 0 1-.08-.07 5.26 5.26 0 0 1-.04-.42.66.66 0 0 1 .07-.38.5.5 0 0 1 .4-.22 1.37 1.37 0 0 1 .44.1.08.08 0 0 1 .03.08.08.08 0 0 1-.04.05.08.08 0 0 1-.06 0 1.12 1.12 0 0 0-.36-.06.34.34 0 0 0-.28.13.51.51 0 0 0-.04.28c0 .14.02.27.04.4a.08.08 0 0 1-.07.1Z"/><path fill="#F283C5" d="m61.86 121.56.3 5.7 4.55-.94s-1-3.83-1.05-5.16l-3.8.4ZM45.35 121.16l-.35 4.96h4.15v-4.76l-3.8-.2ZM50.96 28.03v3.37h5.42l.15-8.2-5.57 4.83Z"/><path fill="#F283C5" d="M51.77 14.37c-1.34.28-3.81 1.7-3.44 6.97.36 5.27 1.42 6.99 2.96 7.2 1.53.23 4.03-2 4.85-3.83.82-1.83 1.02-.02 1.9-.76.9-.75.52-2.08 0-2.31-.24-.15-.54-.2-.83-.15a8.57 8.57 0 0 0-.02-4.96A3.1 3.1 0 0 0 54 14.13c-.75-.02-1.5.06-2.24.23Z"/><path fill="#fff" d="M51.58 20.42s-.22-.67-1.44-.55c-1.23.12-1.55.93-1.55.93a1.7 1.7 0 0 0 1.64.68 1.45 1.45 0 0 0 1.35-1.06ZM52.38 20.3s.43-.74 1.55-.67c1.18.07 1.3.89 1.3.89s-.06.81-1.42.84c-1.36.02-1.43-1.06-1.43-1.06Z"/><path fill="#10004F" d="M50.06 21.5a.77.77 0 1 0 0-1.55.77.77 0 0 0 0 1.55ZM53.75 21.33a.77.77 0 1 0 0-1.54.77.77 0 0 0 0 1.54ZM52.53 19.08c.1.26.72-.1 1.4-.3a1.7 1.7 0 0 1 1.45.34c.17.13.24-.04.01-.28a1.6 1.6 0 0 0-1.45-.49c-.77.08-1.57.27-1.4.73ZM51.24 19.14a.28.28 0 0 0 .25-.42c-.1-.2-1-.42-1.67-.33-.67.09-1.33.74-1.23.95.09.22.5-.6 1.23-.56.74.06.99.36 1.42.36ZM51.06 22.32c-.14.06-.46.26-.36.41.1.15.41-.01.5-.11.08-.1.02-.37-.14-.3ZM52 22.32c.14.06.46.26.36.41-.1.15-.41-.01-.5-.11-.08-.1-.01-.37.14-.3Z"/><path fill="#B30F3B" d="M52.98 23.82s-.1-.71-1.2-.62c-1.12.1-1.21.93-1.21.93.4.09.8.11 1.2.07.43 0 .85-.14 1.2-.38Z"/><path fill="#B30F3B" d="M50.36 24.21s.17.64 1.3.63c1.13 0 1.35-.89 1.35-.89-.4.1-.82.19-1.24.25-.47.03-.94.03-1.4.01Z"/><path fill="#10004F" d="M51.23 24.3c-.62 0-1.25-.06-1.86-.15a.1.1 0 1 1 .03-.21c.8.12 1.59.16 2.38.12a8.68 8.68 0 0 0 2.25-.66.1.1 0 0 1 .07.03.11.11 0 0 1-.03.18 8.8 8.8 0 0 1-2.27.67l-.57.02ZM49.3 16.12s-.2.49 2.79.49c2.98 0 3.3-.49 3.3-.49a5.79 5.79 0 0 0 .56 3.26 10.49 10.49 0 0 0 1.29 2.11s.66-2.08.3-3.96c-.37-1.89-.9-2.73-2.54-3.26a5.22 5.22 0 0 0-3.7.15c-1.51.65-2 1.7-2 1.7Z"/><path fill="#B30F3B" d="M57.36 22.18a.62.62 0 0 1 .6-.04c.11.05.2.35 0 .36-.2.01-.4-.07-.5.08-.1.16-.24.86-.55.71-.3-.15.29-.96.45-1.11ZM50.96 30.2v-1.74s.82.45 2.02-.23a9.05 9.05 0 0 0 2.8-2.85l.73-1.31s-.6 3.13-2.5 5c-1.62 1.63-3.05 1.13-3.05 1.13Z"/><path fill="#7F8DE4" d="M51.07 31.5s-5.73.03-7.65 6.47c-1.9 6.43-.3 25.05.7 25.28.99.23 5.28.08 10.02 0 4.75-.07 9.04.78 9.42.12.39-.66 1-17.59 0-22.1-1-4.53-1.97-8.77-6.07-9.47-4.6-.79-6.42-.3-6.42-.3Z"/><path fill="#7F8DE4" d="M56.72 31.74s.46-.24 3.08.64c2.4.8 6.57 2.75 7.26 7.35.68 4.6 1.3 31.33 1.06 31.79l-5.19.39c.04-.61-.77-9.04-.85-13.18-.08-4.14 0-17.01-.3-18.62-.31-1.6-1.23-6.54-5.06-8.37Z"/><path fill="#2D34CE" d="M45.48 58.68c.38-.42.2-7.77.2-7.77a.41.41 0 0 0-.64-.34l-5.99 3.8c.23.27 3.9 4.41 4.13 4.7l.06.54c1.3-.46 1.88-.52 2.24-.93ZM62.34 63.62s.7-.06.58-3.15c-.13-3.08-.94-16.77-.94-16.77s1.68 8.8 2.12 13.92c.44 5.12.44 6.12-1.76 6Z"/><path fill="#CDD1F1" d="M44.53 119.66c-.22.4-.22 1.8 0 2.08.23.28 6.02.82 6.38 0 .36-.81.33-1.67 0-2.08-.32-.41-6.38 0-6.38 0ZM60.85 120c-.2.4-.2 1.8 0 2.08.2.27 5.3.81 5.63 0 .33-.82.28-1.68 0-2.09-.28-.4-5.63 0-5.63 0Z"/><path fill="#10004F" d="M76.39 128.3s-5.3-2-7.38-3.22c1.45.02 3.11.1 3.46.25a.17.17 0 0 0 .22-.07.17.17 0 0 0-.08-.22c-.43-.2-2.17-.28-3.4-.28.33-.2.66-.38 1-.53.55-.25.88-.72.77-1.08-.04-.13-.21-.43-.86-.3-.72.14-1.52 1-1.96 1.54-.3-.9-.75-1.4-1.44-1.12-.7.28-1.16 2.24-3 2.64l-1.85.4c-.82.41-.67 2.4-.67 2.4s13.71 2.12 14.53 1.46c.8-.66.66-1.86.66-1.86Zm-6.2-5.13c.25-.05.44-.02.47.08.05.15-.15.48-.58.67-.52.25-1.02.53-1.5.84h-.09a1.38 1.38 0 0 1-.11-.1c.4-.5 1.16-1.37 1.8-1.49ZM49.57 124.66l-.37-.03c.1-.25.6-1.77-.36-1.8-.97-.05-2.35 1.6-2.51 1.81l-.52.02c-.68-.45-2.23-1.4-2.8-1.25a.71.71 0 0 0-.52.73c.02.4.36.84 1.24 1 .41.06.83.1 1.24.1l-.06.06a12.26 12.26 0 0 1-2.6.44.16.16 0 0 0-.1.15.17.17 0 0 0 .03.11.16.16 0 0 0 .11.06h.1c.7-.05 1.4-.16 2.1-.33-1.05 1.3-2.38 3.35-2.35 3.72.03.56 7.58.56 7.95.35.38-.22.09-5.06-.58-5.14Zm-6.75-.54a.38.38 0 0 1 .28-.4h.07c.4 0 1.4.57 2.24 1.1-.04.02-.08.05-.12.1-.5 0-1.01-.03-1.51-.1-.69-.12-.95-.44-.96-.7Z"/><path fill="#DFE2F6" d="m57.38 45.45-4.1-1.44a1.18 1.18 0 0 0-1.51.73l-3.03 8.68c-.21.61.11 1.29.73 1.5l4.11 1.44c.62.21 1.29-.11 1.5-.73l3.03-8.67c.21-.62-.11-1.3-.73-1.51Z"/><path fill="#10004F" d="m56.92 45.86-3.53-1.24c-.54-.19-1.13.1-1.32.64l-2.73 7.83c-.19.54.1 1.13.64 1.32l3.53 1.23c.54.19 1.13-.1 1.32-.64l2.73-7.82c.19-.54-.1-1.14-.64-1.32Z"/><path fill="#F283C5" d="M42.69 52.96c.95-.46 1.87-.97 2.77-1.53.86-.56.95-1.12 1.85-1.73.91-.62 1.94-2.77 2.36-2.73.41.04.66.78.58 1.45-.1.53-.27 1.05-.5 1.55 0 0 1.94-.44 2.77 0 .82.43 2.51 1.75 2.14 2.62-.36.87-.99.28-1.44-.04-.45-.32-.45-1.12-1.07-1.24-.62-.12.18-.08.32.7.03.41 0 .83-.08 1.24a.69.69 0 0 1 .05.54 1 1 0 0 1-.5.58s0 .66-.28.86a.93.93 0 0 1-1.12 0c-.33-.28-.78-.16-1.44-.08-.66.09-1-.16-1.98.28l-4.96 2.26.53-4.73Z"/><path stroke="#B30F3B" stroke-linecap="round" stroke-linejoin="round" stroke-width=".22" d="M54.49 52.59s-.78-.08-.78-.6a.47.47 0 0 1 .46-.53"/><path fill="#B30F3B" d="m51.5 51.35-.06-.02c-.24-.2-1-.27-1.33-.23a6.15 6.15 0 0 0-1.02.2.08.08 0 0 1 .01-.16c.32-.1.65-.17.99-.2.35-.04 1.16.02 1.45.27a.08.08 0 0 1 0 .12.08.08 0 0 1-.04.02ZM52.32 53.33a.08.08 0 0 1-.07-.04 3.01 3.01 0 0 0-3-1.23.08.08 0 0 1-.02-.17 3.17 3.17 0 0 1 3.17 1.34.08.08 0 0 1-.03.08.07.07 0 0 1-.05.02ZM51.87 54.36a.08.08 0 0 1-.09-.05 1.19 1.19 0 0 0-.2-.4.96.96 0 0 0-.53-.28c-.8-.19-1.64-.02-2.4.13a.08.08 0 0 1-.06-.02.08.08 0 0 1-.03-.05.08.08 0 0 1 .07-.1 5.81 5.81 0 0 1 2.46-.11c.23.04.45.15.62.32.1.14.18.29.23.45a.09.09 0 0 1-.05.1h-.02ZM48.08 50.46a.08.08 0 0 1-.07-.06.08.08 0 0 1 .04-.1c.08-.04.16-.07.23-.12l.11-.05c.43-.21.9-.3 1.37-.25a.08.08 0 0 1 .07.1.08.08 0 0 1-.1.06c-.43-.04-.87.04-1.26.24l-.1.05c-.09.05-.17.09-.26.12h-.03Z"/><path stroke="#B30F3B" stroke-linecap="round" stroke-linejoin="round" stroke-width=".22" d="M51.75 54.62s-.38-.41-.52 0a.54.54 0 0 0 .28.63"/><path fill="#7F8DE4" d="M51.66 31.5c-1.74.06-5.11.32-7.59 2.04-2.47 1.72-3.64 4.5-5.82 9.92-2.81 6.99-3.15 10.51-3.21 12.54-.09 2.7-.16 5.2 1.26 6.1 1.74 1.09 5.21-.52 8.73-4.06v-6.67s-5.51 2.84-5.97 2.99l4.37-2.77c-.57-2.92-.5-5.94.21-8.83.9-3.45 2.66-6.62 5.1-9.22.86-.95 2.35-1.56 2.91-2.04Z"/><path stroke="#10004F" stroke-miterlimit="10" stroke-width=".18" d="M54.01 22.26a1.77 1.77 0 1 0 0-3.54 1.77 1.77 0 0 0 0 3.54ZM49.74 22.33a1.77 1.77 0 1 0 0-3.54 1.77 1.77 0 0 0 0 3.54Z"/><path fill="#10004F" d="M51.29 19.56h1.15l-.19.4a5.4 5.4 0 0 1-.73 0l-.23-.4Z"/><path stroke="#10004F" stroke-linecap="round" stroke-miterlimit="10" stroke-width=".18" d="m55.68 19.88 1.78 1.6"/><path fill="#10004F" d="M50.8 30.86s-.53.56-.33.81 1.9.2 3.53.2 2.44 0 2.73-.14c.3-.13-.1-.68-.34-.87-.26-.2-5.59 0-5.59 0Z"/><path fill="#2D34CE" d="m41.62 53.1 5.12-13.55-1.12 11.02-4 2.54Z"/><path fill="#DFE2F6" d="M61.15 128.25s-.11 1-.42 1.48c-.3.47-.34 1.08-.25 1.27.08.18 16.04.26 16.6-.24.53-.48.5-1.37 0-1.9-.5-.53-.97-.74-.97-.74-.62-.03-14.96.13-14.96.13ZM42.19 131.24c.2.19 7.8.1 7.96 0 .16-.1.25-1.3 0-1.46-.25-.15-1.22.29-2.02-.31s-1.38-2.31-2.63-2.22c-1.24.1-1.65 2.03-2.37 2.06-.72.03-.78-.19-.94.16a6.2 6.2 0 0 0 0 1.77Z"/><path fill="#F9ACAC" d="M75.06 30.4c-.2.43-.97.89-1.64.78-.96-.43-1.17-.87-1.2-1.56-.03-.55.9-1.2 1.24-1.36-.25-.54-.6-.65-.66-.9-.05-.26.17-.44.8 0 .93.67 1.66 2.62 1.46 3.04Z"/><path fill="#DD5252" d="M73.42 31.18c.68.1 1.44-.35 1.64-.78.14-.28-.14-1.22-.6-2.02.16.75.16.78-.51 1.15-.61.33-.74 1-.71 1.56l.18.1Z"/><path fill="#fff" d="M73.07 31.75c-.16.32.27.44.54.33.87-.27 1.81-1.54 2.01-1.81.2-.27 0-.87-.2-1.07-.2-.2-.33.2-.6.2-.27 0-.54-.34-.8 0-.28.33-.2.53-.61.74-.4.2-.34.33-.27.94.07.6.14.26-.07.67Z"/><path fill="#F9ACAC" d="M86.23 23.91c-1.75.2-3.53.57-4.43 5.4-.73 3.88 1.5 4.77 3.26 5.04 1.49.23 3.53.54 4.15-.44.99-1.57 1.08-.82 2.01-1.38.96-.57.7-1.43.26-1.7-.48-.32-.43-.25-.43-.25s.7-1.83.63-3.22c-.1-2.03-2.34-3.8-5.45-3.45Z"/><path stroke="#B30F3B" stroke-linecap="round" stroke-linejoin="round" stroke-miterlimit="10" stroke-width=".26" d="M87.54 25.2a5.19 5.19 0 0 0 3.23 3.19M86.24 25.07c.13.56.5 1.05 1 1.34M85.22 25c.04.3.21.56.46.72"/><path fill="#DD5252" d="M91.05 30.57c-1.15 2.04-2.53 2.37-3.03 2.37-.16 0-.36-.04-.6-.08-.7-.13-1.78-.32-3.22.08-.91.25-1.55.14-1.95-.06.67.97 1.81 1.32 2.8 1.47 1.5.23 3.54.54 4.16-.44.64-1.02.9-1.06 1.27-1.11.2-.03.42-.07.74-.26.97-.57.7-1.44.26-1.72a2.12 2.12 0 0 0-.43-.25Z"/><path fill="#F9ACAC" d="m90.3 120.5-1.86-.5-1.03 6 3.96.56.6-6.34-1.66.28Z"/><path fill="#fff" d="M91.68 124.56s-2.3 2.69-3.95.35c0 0-8.23.77-8.23 5.15v.4h12.97s.3-3.89-.79-5.9Z"/><path fill="#10004F" d="m88.02 129.77.02-.02c-.02-.02.02-.02.02-.02.02 0 .02-.02.02-.02 0-.02 0-.04-.02-.06 0 0 0-.02.02-.02.02-.02 0-.04-.02-.04 0 0-.02 0-.02-.02v-.06l-.02-.02s-.02 0 0 0c.02-.04 0-.04-.02-.06l-.02-.05c.02 0 0 0 0 0H88v-.01l-.02.01c-.02.03-.02.03-.04 0-.02-.01-.02-.03-.04-.06 0 0-.02-.02.02-.02 0 0 0-.02-.02-.02-.04 0-.04-.04-.02-.06 0 0 .02-.02-.02-.02.04-.02 0-.02 0-.02h.02v-.02c0-.02-.04-.04-.04-.06h.02c.02-.02 0-.02 0-.02-.04 0-.04-.02-.04-.06a.04.04 0 0 0-.04-.04c-.02-.02-.08 0-.06-.02 0 0 .02 0 .02.02-.02 0 .02-.02 0-.02h-.02c-.02-.02-.04-.04-.02-.08.02-.02-.02-.04-.02-.06h-.02l-.06.02c-.02-.02-.02-.06-.02-.08l-.02-.06c-.02 0-.02 0-.02-.02v-.02c-.02-.03 0-.04-.02-.06v.03l-.04-.01h-.06l-.02-.07c0-.02 0-.04.04-.08-.02 0-.04 0-.04.02-.04.02-.02-.02-.02-.02h.02l.02-.04s-.02 0-.02-.02v.02c-.02 0-.02 0-.02-.02.02-.06.02-.06-.02-.06v-.04h.04c-.02-.02-.02-.04-.04-.04-.04 0-.02-.02-.04-.02 0 0-.02 0 0-.02s0-.02 0-.02c-.02 0-.02-.04-.06-.02h-.02c.02-.02.02-.02-.02-.02-.02 0-.02-.02 0-.02.02-.02.02-.04.02-.06h-.02c-.02 0 0 .02 0 .02h-.02s-.02-.02.02-.04c0 0 .02-.02 0-.02s0 0-.02.02h-.02c.02-.02 0-.02 0-.04s-.02-.02-.02-.02c0-.02-.02-.04 0-.06 0-.04 0-.06-.02-.09l-.04-.03h-.02s-.02 0 0 0c0 0 0 .02-.02.02s0 0 0-.02c-.02-.02 0-.07 0-.09 0-.02-.04 0 0-.04l-.04.02c-.02.02-.02.02-.02 0v-.04c0-.02 0-.02-.02 0 0 0-.04.02-.02 0v-.02c-.02 0-.02 0 .02-.02 0-.02 0-.04-.02-.04s-.02-.02-.02-.02.02-.04-.02-.02c0 0 0-.02.02-.02.04-.02.02-.02.02-.04l-.02-.02c0-.02-.02 0-.04 0v-.02s0-.02-.02 0c0 0-.02 0-.02.02l-.02-.04c0-.02 0-.04-.02-.06-.02 0 0-.04-.02-.04 0 0 .04 0 .02-.02h-.02v-.02c.02-.02.02-.02 0-.02h-.02c.02-.02 0-.04-.03-.04-.02 0-.02 0-.02-.02v-.04c0-.02-.02-.04-.04-.04s0-.02 0-.05c0-.02-.02-.02-.06-.02-.02 0-.02 0 0-.01.02-.03.02-.03 0-.03 0 0-.04 0 0-.02 0 0-.02 0-.02-.02 0 0 0-.02-.02 0 .02-.02 0-.02 0-.02 0-.02-.04-.02-.06-.04-.02 0-.02-.02-.04-.04.02-.02 0-.02 0-.02-.02-.02-.04-.04-.02-.06h-.04c.02 0 0 0 0 0h-.02c.02-.04-.04-.04-.02-.08 0-.02-.02-.04 0-.06-.04-.02-.04-.04-.04-.08h-.04c.02-.02-.02-.02 0-.04 0-.02 0-.02-.02-.02 0 0-.02 0 0-.02 0-.02 0-.04-.02-.06-.02 0-.04-.02-.04-.04l-.02-.06c-.02-.02-.02-.06-.06-.09.02-.04 0-.04-.02-.06-.02-.02-.02-.06-.06-.08-.02-.02-.02-.04-.06-.06 0 0-.02 0 0-.02s-.02-.02-.02-.02c-.04.02-.02 0-.02 0h-.02s-.02 0 0 0c.02-.02 0-.02-.02-.02s-.02 0 0-.02c.02 0 0 0 0-.02l-.04-.06c0-.02 0-.04-.04-.04-.02 0 0-.02 0-.04 0-.04-.04-.04-.06-.06h-.1c-.02 0-.02.02-.02.02.02.02 0 .04.02.06 0 .02 0 .04.02.04v.02c-.02.02 0 .02 0 .02.02 0 .02.04.02.06 0 .02.02.04.04.04s0 .02 0 .04l.06.12v.02l.02.04c.02.02.02.02.02.05v.02c.02 0 .02.02.02.03 0 .05.02.07.04.09l.02.04.02.04c.02.02.04.02.04.04s.04.02.04.04 0 .04.02.06v.06l.02.04c.02.02.02.06.02.08 0 .02.04.02.02.04.04-.02.02.02.02.02.02.02.06.04.04.08 0 .04.02.04.04.06.02 0 .02.05.02.06 0 .03.02.03.02.05 0 0 0 .02.02 0 .02 0 0 .02 0 .02.02.02 0 .08.06.08.02 0 0 .02.02.04v.02l-.02.02s0 .02.02 0v-.02h.02l.02.04c.02 0 0 0 0 0h-.02c0 .02.02 0 .02 0h.02c0 .02 0 .04.02.06.02 0 .02.02.04.04 0 0 .02.02 0 .02-.02.02 0 .02 0 .02.02.02.02.06.06.08l.06.04c.02.02 0 .04.02.06h-.02s0-.02-.02 0v.02c.04.06.04.13.1.18l.06.07s-.02.02 0 .04c.03.02.03.06.05.08l.02.04c.02 0 0 .02 0 .02l.04.08.02.02s0 .02.02 0c.02 0 .02 0 .02.02-.02.02 0 .04 0 .04l.04.06s0 .02.02.02c-.02.02-.02.02 0 .02s.02 0 .02.02.02.04.04.06c.02.04.06.08.08.15.02.02.04.03.04.08 0 .02.02.02.04.04.02.04.04.06.04.1 0 .02.02.02.02.02s.02 0 0 .02.02.02.02.02c.02.02 0 .04.02.04l.06.08s0 .02.02 0c.02 0 0 0 0 .02 0 0 0 .02-.02.02h-.02c.04 0 .04.02.04.04.04.04.04.08.06.12v.02c.02.02.04.04.02.06.06 0 .02.06.06.06.02 0 .04 0 .02.04.04 0 .02.03.04.05 0 .02.02.02.04.02v.02c0 .04 0 .06.04.08.04.02.02.04.02.06.02 0 .02.02 0 .02s-.02.02-.02.02c.02 0 0-.02 0-.02.02 0 .02 0 .02.02-.02.04.04.06.04.08 0 0 .02.02 0 .02.02 0 0 0 0-.02l.04-.02h-.02c0 .02.02 0 .02 0 .02 0 .02.02.02.02.12.06.22.06.24.04Zm-1.57-2.57c0-.02 0 0 0 0 .02 0 0 0 0 0Zm.22.34c.02 0 0 .02 0 0 0 .02 0 .02 0 0-.02 0-.02 0 0 0Zm.23-.1c0-.02-.02 0 0 0 0-.02 0 0 0 0Zm.14.24c0-.02 0 0 0 0 0-.02 0-.02 0 0 0-.02.02-.02 0 0Zm.26.45c-.02 0-.02 0 0 0-.02-.02-.02-.02 0 0 0-.02 0-.02 0 0 0-.02 0-.02 0 0Zm.56.89c-.02-.02-.02 0 0 0l-.02-.02s.04-.02.02.02Zm.02.06c-.02 0-.02 0 0 0 0-.02 0 0 0 0s.02-.02 0 0ZM86.27 129.78l.02-.03c-.02 0 .02-.02.02-.02.02 0 .02-.02.02-.02 0-.02.02-.04-.02-.04 0 0 0-.02.02-.02.02-.02.02-.04 0-.04h-.02v-.08s-.02 0 0 0c.02-.02 0-.04-.02-.06l-.02-.05c.02 0 0 0 0 0h.02v-.02h-.02c-.02.02-.02.02-.04 0-.03-.02-.03-.04-.03-.04s-.02-.02.03-.02l-.03-.02c-.04 0-.04-.02-.02-.06 0 0 .02-.02 0-.02.05-.02 0-.02 0-.02h.02v-.02l-.02-.04h.02c.03-.03.03-.03 0-.03-.02 0-.04-.02-.02-.04 0-.02-.02-.02-.04-.04s-.08 0-.06-.02l.02.02c-.02 0 .02-.02 0-.02h-.02c0-.02-.02-.04 0-.06.02-.02-.02-.04 0-.06h-.02l-.06.02c-.02-.02-.02-.04 0-.08 0-.02 0-.04-.02-.07-.02 0-.02 0-.02-.02v-.02c-.02-.02 0-.04-.02-.04v.02l-.04-.02h-.04c-.05.02-.03 0-.03 0 0-.02-.02-.04 0-.06 0-.02 0-.04.05-.06l-.05.02c-.04.02 0-.02-.02-.02h.02c0-.02.03-.02.03-.04 0 0-.03 0 0-.02-.03 0-.03 0-.03-.03.05-.04.05-.04-.02-.04v-.02h.02c0-.02 0-.04-.04-.04s-.02-.02-.02-.02-.02 0 0-.02c.02 0 0-.02 0-.02-.02 0 0-.04-.06-.02h-.02c.02-.02.02-.02-.02-.02-.02 0-.02-.02 0-.02.02-.02.04-.04.02-.04h-.02c-.02 0 0 0 0 .02h-.02s-.02-.02.02-.02c0 0 .02-.02 0-.02s0 0-.02.02h-.02l.02-.04c0-.03-.02-.03-.02-.03v-.04c.02-.02 0-.06-.02-.06l-.02-.04h-.02s-.02 0 0 0c0 0 0 .02-.02.02 0 0-.02 0 0 0-.02-.02 0-.04 0-.08 0-.02-.04 0 0-.04l-.04.02c-.03.02-.03.02-.03 0v-.04s0-.02-.02 0c0 0-.04.02-.02 0v-.02c-.02 0-.02 0 .02-.02 0-.03 0-.05-.02-.05s-.02-.02-.02-.02.02-.02-.02-.02l.02-.02c.04-.02.02-.02.02-.04v-.02c0-.02-.02 0-.04 0v-.02h-.02s-.02 0-.02.02l-.02-.04c0-.02 0-.04-.02-.04s0-.02-.02-.04c0 0 .04 0 .02-.02h-.02v-.02c.02-.03.02-.03 0-.03h-.02c.02-.02.02-.04-.02-.04-.02 0-.02 0-.02-.02v-.02c.02-.02 0-.02-.02-.04-.02 0 0-.02 0-.02 0-.02-.02-.02-.06-.02-.02 0-.02 0 0-.02s.02-.02 0-.02c0 0-.05 0 0-.02l-.02-.02s0-.02-.03 0c.03-.02 0-.02 0-.02 0-.02-.02-.02-.04-.04-.02 0-.02-.03-.04-.05.02-.02 0-.02 0-.02 0-.02-.04-.02-.02-.06h-.04c.02 0 0 0 0 0h-.02c.02-.04-.04-.04-.02-.06.02-.02-.02-.04 0-.06-.02-.02-.04-.04-.04-.06h-.04c.02-.02-.02-.02 0-.05 0-.02.02-.02-.02-.02v-.02c0-.02 0-.04-.02-.04a.04.04 0 0 1-.05-.04l-.02-.04-.04-.08c.02-.02 0-.04 0-.04-.02-.03-.02-.07-.04-.09-.02-.02-.02-.04-.04-.04 0 0-.02 0 0-.02s-.02-.02-.02-.02c-.04.02-.02 0-.02 0s-.02 0 0 0c.02-.02 0-.02-.02-.02s-.02 0 0-.02c.02 0 0 0 0-.02l-.02-.04c0-.02 0-.04-.02-.04s0-.02 0-.02c0-.03-.04-.05-.06-.07H84.35c-.02 0-.02.03-.02.03v.06l.02.04v.02c-.02.02 0 .02 0 .02.02 0 .02.04.02.04 0 .02 0 .04.02.04.03 0 0 .02 0 .04.03.04.03.08.07.1v.03l.02.04s.02.02 0 .04v.02c.02 0 .02.02.02.02 0 .04.02.04.04.06v.02c.02 0 .02.02.02.04.02.03.04.03.04.05 0 .02.04.02.04.04s0 .04.02.06v.06l.02.04c.02.02 0 .04.02.06 0 .02.04.02.02.05.04-.03.02 0 .02.02s.05.04.05.06c0 .02.02.04.04.06.02 0 0 .02 0 .04s.02.02 0 .04c0 0 0 .02.02 0 .02 0 0 .02 0 .02 0 .02-.02.06.04.06.02 0 0 .02.02.02v.03c-.02 0-.02.02-.02.02s0 .02.02 0v-.02h.02c0 .02.02.02.02.02.02 0 0 0 0 0h-.02.04c0 .02 0 .04.02.04l.04.02s.02.02 0 .02c-.02.02 0 .02 0 .02.02.02.02.06.04.06l.04.02c.03.02 0 .04.03.06h-.05v.02c.05.05.05.13.09.17l.04.06s-.02.02 0 .04l.02.06c0 .03 0 .03.02.05.02 0 0 .02 0 .02 0 .02 0 .04.02.06l.02.02h.04c-.02.02 0 .02 0 .04.02.02 0 .04.04.04 0 0 0 .02.02.02-.02.02-.02.02 0 .02s.02 0 .02.02l.02.06.07.13c0 .02.04.04.02.08 0 .02.02.02.04.04 0 .02.04.04.04.09 0 0 0 .02.02.02 0 0 .02 0 0 .02s.02 0 .02.02c.02.02 0 .04.02.04l.04.08s0 .02.02 0v.02s0 .02-.02.02h-.02c.04 0 .02.02.04.04.04.02.04.07.04.13v.02c.02.02.02.02.02.06.04 0 .02.04.04.06.03 0 .05 0 .03.02.04 0 .02.02.02.04 0 .03.02.03.04 0v.03c0 .04 0 .06.04.06s0 .04 0 .06c.02 0 .02 0 0 .02-.02 0-.02.02-.02.02.02 0 0 0 0-.02.02 0 .02 0 .02.02-.02.04.02.04.02.08 0 0 .02 0 0 .02.02 0 0 0 0 0l.04-.02H86h.02c.02 0 .02.02.02.02.1.08.19.08.23.06Zm-1.32-2.3s-.02 0 0 0c0-.02 0 0 0 0Zm.19.31s-.03 0 0 0c-.03.02-.03.02 0 0-.03 0-.03 0 0 0-.03 0-.03 0 0 0Zm.22-.1s-.02 0 0 0Zm.12.23c-.02 0-.02 0 0 0-.02-.02-.02-.02 0 0 0-.02 0-.02 0 0 0-.02 0-.02 0 0Zm.21.39c0-.02-.02 0 0 0-.02-.02-.02-.02 0 0 0-.02 0-.02 0 0 0-.02 0-.02 0 0Zm.47.78s-.02 0 0 0c-.02-.02-.02-.02 0-.02v.02c-.02 0 .04-.02 0 0Zm.02.07c-.02 0-.02 0 0 0 0-.03 0 0 0 0s.02-.03 0 0ZM84.77 129.77l.02-.02c-.02 0 .02-.03.02-.03l.02-.01c0-.03.02-.05 0-.05 0 0 0-.02.02-.02.02-.02.02-.04 0-.04h-.02v-.04c.02-.02.02-.04 0-.06l-.02-.02c.02 0 0 0 0 0h.02s0-.02.02-.02h-.02l-.04.02c-.02 0-.02-.02-.02-.04 0 0-.02 0 .02-.02h-.02c-.04 0-.02-.02-.02-.04.02-.02 0 0 0 0 .04-.02 0-.02 0-.02h.02l-.02-.04h.02c.02-.02.02-.02 0-.02s-.02-.02-.02-.04-.02-.02-.05-.04c-.02 0-.06 0-.06-.03h.02c-.02 0 .02-.02 0-.02h-.02c0-.02-.02-.02 0-.06.02-.02-.02-.02 0-.04h-.02l-.06.02c-.02 0-.02-.04 0-.06V129c-.02 0-.02 0-.02-.02v-.02c0-.02 0-.04-.02-.04l-.05-.02h-.04c-.04.02-.02 0-.02 0v-.04c0-.02 0-.04.04-.06l-.04.02c-.04.02 0 0-.02 0h.02s.04-.02.02-.02c0 0-.02 0 0-.02-.02 0-.02 0-.02-.03.04-.04.04-.04-.02-.04v-.02h.02s0-.04-.02-.02c-.02 0-.02 0-.02-.02 0 0-.02 0 0-.02.02 0 .02-.02 0-.02s0-.02-.06 0h-.02c.02-.02.02-.02 0-.02-.03 0-.03 0 0-.02.02-.02.04-.04.02-.04h-.02c-.03 0 0 0 0 .02h-.03s-.02 0 .03-.02c0 0 .02-.02 0-.02-.03 0 0 0-.03.02h-.02c.02-.02 0-.02.02-.02 0-.02-.02 0-.02-.02v-.04c.02-.02 0-.04 0-.06 0 0-.02 0-.02-.02h-.02s-.02 0 0 0c0 0 0 .02-.02.02 0 0-.02 0 0 0-.02-.02 0-.04.02-.06 0-.02-.02 0 0-.02l-.04.02c-.02 0-.02.02-.02 0v-.02s0-.03-.02 0c0 0-.04.02-.02 0v-.03s-.02 0 .02-.02c0-.01 0-.04-.02-.04s0 0 0-.02c0 0 .02-.02-.02 0l.02-.02c.04-.02.04-.02.02-.02h-.04v-.02h-.02s-.03 0-.03.02c0-.02-.02-.02 0-.02v-.04c-.02 0 0-.02-.02-.02 0 0 .02 0 .02-.02h-.02v-.02c.02-.02.02-.02 0-.02H84c.02-.02.02-.02-.02-.02-.02 0-.02 0-.02-.02v-.02c.02-.02 0-.02-.02-.02s0-.02 0-.02c0-.02-.02-.02-.06-.02-.02 0-.02 0 0-.02.02 0 .02-.02 0-.02 0 0-.05 0 0-.02h-.02s.02-.02-.03 0c.03-.02 0-.02.03-.02 0-.03-.03-.03-.05-.03-.02 0-.02-.02-.02-.02.02-.02.02-.02 0-.02 0-.02-.02-.02 0-.04h-.04c.02 0 0 0 0 0h-.02c.02-.04-.02-.02-.02-.06.02-.02 0-.02 0-.04-.02 0-.04-.02-.02-.06h-.04c.02-.02-.02-.02 0-.02 0 0 .02-.02-.02-.02v-.02c0-.02 0-.04-.03-.04-.02 0-.04 0-.02-.02l-.02-.04c-.02-.02 0-.04-.04-.06.04-.02 0-.04 0-.04-.02-.03 0-.07-.04-.07-.02 0-.02-.02-.04-.04 0 0-.02 0 0-.02s-.02 0-.02-.02c-.05.02-.03 0-.03 0s-.02 0 0 0c.03-.02 0-.02-.02-.02s-.02 0 0-.02c.02 0 0 0 0 0l-.02-.04c0-.02 0-.02-.02-.02s0-.02 0-.02c0-.02-.04-.02-.06-.04h-.11c-.02 0-.02.02-.02.02v.08c-.02.02 0 .02 0 .02.02 0 .02.02.02.04s0 .02.03.04c.02 0 0 .02 0 .02.02.02.02.06.04.09v.02c0 .02 0 .02.02.02 0 0 .02.02 0 .04v.02c.02 0 .02.02.02.02-.02.02.02.04.02.06v.02c.02 0 0 .02.02.02.02.02.04.02.04.04s.02.02.02.02v.04c-.02.02 0 .02 0 .04s.02.02.02.02c.03.02 0 .04.03.06l.02.05c.04-.02.02 0 .02.02s.04.02.04.06c0 .02.02.04.04.04s0 .02 0 .04.02.02 0 .02c0 0 0 .02.02 0 .02 0 0 .02 0 .02 0 .02-.02.06.04.06.03 0 0 .02 0 .02v.02c-.02 0-.02.02-.02.02h.05c0 .02.02.02.02.02.02 0 0 0 0 0h-.02.04c-.02.02 0 .04 0 .04.02 0 .02.02.02.02s.02 0 0 .02 0 .02 0 .02l.04.06c.02 0 .04 0 .04.03.02.02 0 .04.02.04h-.04v.02c.02.04.02.1.06.12.02.02.02.04.05.04l-.03.02c0 .02 0 .04.03.06 0 0 0 .02.02.02s0 .02 0 .02c0 .02 0 .04.02.06v.03h.04c-.02.02 0 .02 0 .04l.02.04s0 .02.02.02c-.02.02-.02.02 0 .02H84l.02.04.07.1.02.06c0 .02.02.02.02.02 0 .02.04.04.04.06l.02.02s.02 0 0 .02.02 0 .02.02c0 0 0 .03.02.05l.04.06s0 .02.03 0c0 0 0 .02-.03.02h-.02c.05 0 .02.02.05.02.02.02.04.06.04.1.02 0 .02.02 0 .04.04 0 0 .04.04.04.02 0 .04 0 .02.02.04 0 .02.02.02.02 0 .02.02 0 .04 0v.02c0 .02 0 .04.02.06.03 0 0 .04 0 .04.03 0 .03 0 0 .03l-.02.01c.02 0 0 0 0-.01h.02c-.02.04.03.04.03.06 0 0 .02 0 0 .02.02 0 0 0 0 0l.04-.02h-.02.02c.02 0 .02 0 .02.02.08 0 .17 0 .2-.02Zm-1.11-1.82s-.02 0 0 0c0 0-.02 0 0 0Zm.14.24s0 .02 0 0c-.02.02-.02.02 0 0-.02 0-.02 0 0 0Zm.23-.1s-.02 0 0 0Zm.1.19s-.01 0 0 0c0-.03 0-.03 0 0 0-.03 0-.03 0 0 0-.03 0-.03 0 0Zm.18.3s-.02 0 0 0c0-.02 0-.02 0 0 .02 0 .02 0 0 0Zm.4.61s-.03.03 0 0c-.03 0-.03-.02 0-.02v.02c-.03 0 .04-.02 0 0Zm.02.07c0-.02 0 0 0 0 .02-.02.02 0 0 0Z"/><path stroke="#10004F" stroke-linecap="round" stroke-miterlimit="10" stroke-width=".51" d="M91.57 124.56c-.54.58-2.22 2.18-3.89.35"/><path fill="#DFE2F6" d="M83.4 130.26c-.4-.6-.4-.8-.79-1.42-.32-.52-.58-1.1-.88-1.64-.02-.04-.06-.1-.1-.1-.05 0-.09.02-.13.04-.26.18-.5.38-.72.6-.6.62-.92 1.86-1 2.72 1.04-.16 2.35-.28 3.41-.2"/><path fill="#10004F" d="M79.77 130.86h12.47a.4.4 0 0 0 0-.8H79.77a.4.4 0 0 0 0 .8Z"/><path fill="#DD5252" d="m89.91 120.4.4.1.63-.1h1.02l-.27 2.82-3.69-.63.37-2.2h1.54Z"/><path fill="#F9ACAC" d="m100.52 118.12-1.63.8-.2 8.72 3.49-1.13.8-7.38-2.46-1.01Z"/><path fill="#fff" d="M102.59 124.77c-.32 1.53.76 2.94.4 4.43-.32.98.1 1.39-1.27 1.27-1.2-.19-3.4.92-3.78-.77-.32-1.57.66-3 .52-4.57 1.39 1.39 2.78.76 4.03-.36"/><path stroke="#10004F" stroke-linecap="round" stroke-miterlimit="10" stroke-width=".51" d="M102.43 124.56c-.16.22-.42.5-.79.77-.3.2-.75.52-1.3.56-.98.06-1.7-.83-1.8-.95"/><path fill="#DFE2F6" d="M102.59 130.23c.13-.18.13-.41.08-.63-.06-.22-.22-.4-.4-.54a2.79 2.79 0 0 0-3.09-.27c-.61.35-1.07 1-1.03 1.68 1.01.1 2.03.14 3.04.12.5-.02 1.04-.06 1.45-.32"/><path fill="#10004F" d="M98.29 130.86h4.27a.4.4 0 0 0 .41-.4.4.4 0 0 0-.4-.4h-4.28a.4.4 0 0 0-.41.4c0 .22.18.4.4.4Z"/><path fill="#DD5252" d="m102.19 118.8-3.3.34-.08 3.07 3.77.52.4-3.6-.8-.32Z"/><path fill="#4658DF" d="M84.47 72.04c.64-6.33 1.87-13.26 3.21-17.17l16.96-.94c.94 1.74 1.83 4.74 2.42 10.53.73 7.24 0 18.65-1.61 30.39-1.22 8.84-1.08 17.9-2.48 26.7h-6.03c.53-18.59-.2-34.89-.2-44.21-1.17 4.87-2.22 13.5-2.75 18.65-.6 5.7-1.08 16.16-1.08 26.22h-5.96s-1.07-13.95-1.88-23.88c-.8-9.92-.94-22.92-.6-26.29Z"/><path fill="#2D34CE" d="m86.95 57.08 14.77-1.3 3.72.16c.6 1.1.88 2.49 1.08 4.5l-19.98-1.68c.14-.54.18-1 .4-1.68Z"/><path fill="#F9ACAC" d="M101.7 31.37c-.1-1.41-.32-2.8-.54-4.2a8.13 8.13 0 0 0-.06-.34c-.33-.06-.02-1.7-.3-1.88-1.5-1.13-2.33-2.42-2.12-6.37.02-.49-2.03-2.81-2.03-2.81l-.61-1.5c-.01.27-.1.53-.26.75.03 0 .05-.02.08-.03v.03c-.3 1.04-1.1 1.86-1.2 2.98-.02.31.07.56.02.84 0 .12 0 .23-.02.35-.2.8-.5 1.1-.54 1.94-.02 1.38.46 4.02.87 4.5.4.46 1.6.73 2.35 1 .67.87.53 2.61.36 3.44l3.1 1.95c.3-.01.6-.06.9-.14v-.5Z"/><path fill="#F283C5" d="M97.37 26.8v-.04.03Z"/><path fill="#F9ACAC" d="M95.85 15.02V15l-.08.03-.13.21c-.66.93-1.32 1.99-1.32 1.99-.12.44.34.93.35 1.63.05-.28.05-.57.08-.88.1-1.13.8-1.9 1.1-2.95Z"/><path fill="#F283C5" d="m103.9 26.63-.05.02.09.12-.04-.14ZM95.94 14.03l.1.23a.3.3 0 0 0-.1-.23Z"/><path fill="#E55CB4" d="M104.34 29.3c-.26-.74-.18-1.77-.4-2.53l-.1-.13c-.26.07-1.6.4-2.75.18l.06.34c.22 1.4.43 2.8.55 4.2v.54a3.8 3.8 0 0 0 2.64-2.6Z"/><path fill="#1B0088" d="M94.3 17.4c.1-.01.21-.02.32 0 .36.03.82.23.96.59.04.11.06.28.03.3a1.63 1.63 0 0 0-1.1-.66l-.2-.07-.01-.15Z"/><path fill="#A7B1E9" d="m106.32 57.75-19.91.4c.6-3.68 1.81-10.86 2.08-12.47.23-1.4-1.41-3.22-1-5.3.6-3.08 3.34-8.65 7.77-10.13 2.45-.91 12.2-2.08 13.6-.33 1.41 1.74 1.81 5.7.6 9.92-1.61 5.68-5.35 6.04-5.35 9.4 0 1.94 1.54 5.3 2.2 8.51Z"/><path fill="#4658DF" d="m93.76 58-3.72.07 2.14-13.27 2.28-6.64 2.88.2-1.2 6.18-1.35.73c.47 1.01 1.81.74 1.81 3.16-.2 4.42-3.42 7.5-2.84 9.56Z"/><path fill="#B9AEFC" d="M74.2 30.05c-1.04.92-.5 2.24.14 3.15.17.23.49.58.88 1.01 1.04 1.15 2.62 2.9 3.34 4.66a14.3 14.3 0 0 1-.57 5c-1.54 3.22-1.62 7.45.02 8.18 1.65.74 6.93.44 9.78-1.9 1.97-1.62 1.82-3.37 1.7-4.9-.07-.68-.12-1.33.02-1.9l.15-.6c.51-1.98 1.35-5.26.84-7.3-.84-1.6-3.89-2.85-7.85-1.6-.51.22-.94.2-1.32.11-1.28-.43-2.75-1.63-3.65-2.45-1.65-1.51-2.72-2.13-3.48-1.46Z"/><path fill="#885AF5" d="M89.24 34.2c.5 1.33.1 2.64-.82 4.1-.53.87-.53 1.64-.52 2.55a8.41 8.41 0 0 1-1.02 4.5c-1.5 2.9-6.45 4.31-8.71 4.42-.37-1.07-.86-2.08-1.25-2.3-.3 2.18.04 4.11 1.1 4.59 1.64.73 6.93.43 9.78-1.9 1.97-1.63 1.82-3.37 1.69-4.9-.06-.69-.12-1.33.02-1.9l.16-.61c.5-1.98 1.35-5.26.84-7.29-.25-.46-.68-.9-1.27-1.26Z"/><path fill="#F48787" d="M96.45 48.17c.3-2.47-1.08-3.64-5.1-2.84l-.86 4.81c-.49 1.67-1.01 5-1.47 6.2-.57 1.5-1.1 2.8.67 3.02 1.59.2 2.26 1.48 3.29 1.34 2.28-.32 1.72-1.63 1.4-2.15-.59-.96-1.88-1.18-2.31-1.37 2.01-3.34 4.14-7.08 4.38-9.01Z"/><path fill="#DD5252" d="M89.77 53c.71-.36 1.43-.76 1.75-1.02.56-.45 1.93-4.6 2.54-6.61l-2.54 1.14-.64 1.46-.39 2.18c-.2.7-.43 1.67-.67 2.65l-.05.2Z"/><path fill="#F9ACAC" d="m95.73 41.32-4.9-2.48-3.28 8.85-9.79 2.68c-.6-2.34-1-4.29-1.54-4.29-.6 0-.94.13-.73 1.61-.65.02-1.47.67-.88 3.09.43 1.74 1.95 3.01 3.15 3.01 8.05-.67 12.07-1.54 13.34-2.34 1.26-.8 3.76-7.72 4.63-10.13Z"/><path fill="#2D34CE" d="M96.8 83.63c-.04-2.28-.06-4.35-.07-6.16l.8-4.43 4.37-.53-5.1 11.12Z"/><path fill="#F48787" d="m93.42 40.15 2.3 1.17c-.3.83-.78 2.2-1.35 3.66l-4.48-3.6.76-2.05 2.77.82Z"/><path fill="#A7B1E9" d="M88.62 40.3c.8-3.04 2.75-8.64 5.38-9.08 4.11-.68 4.2 4.36 3.64 6.04-.46 1.35-1.07 4.57-1.86 6.54l-7.16-3.5Z"/><path fill="#7F8DE4" d="m100.68 57.85 5.77-.1c-.67-3.22-2.34-6.57-2.34-8.52 0-1.6.86-2.53 1.93-3.67.95-1.01 2.05-2.2 2.88-4.16l-.12-3.03-.47-7.65-10.26-1.07c-.73 1.74-1.36 3.35-.4 6.3.9 2.75.4 3.62-.27 6.38-.73 3.08-.46 6.57 2.69 8.85 1.67 1.21 1.4 4.7.59 6.67Z"/><path fill="#10004F" d="M102.23 11c-3.25 0-6.15 1.28-7.3 4.43a2.4 2.4 0 0 1 1.43.94c.15.23.27.47.36.74l.16.36c.47 1.08 2 2.99 1.6 4.2-.75 2.2-.35 3.08.2 4.02.88 1.52.18 2.47-.67 3.76-.9 1.34-.79 2.82-.47 4.56.47 2.61 1.35 3.42.47 7.58-.94 3.35.67 11 8.44 6.9 6.97-3.66 8-9.65 5.77-12.6-1.74-2.29-1.72-2.63-1.34-4.43.4-1.95-.23-4.68-2.02-5.77-1.2-.74-2.83-2.76-2.07-4.03 2.88-4.82.4-10.66-4.56-10.66Z"/><path fill="#2D34CE" d="m110.48 42.86-.01-.02v-.03l-.01-.02a.16.16 0 0 1 .06-.07v-.02a.07.07 0 0 1 .06-.07h.02l.06-.1h.04a.17.17 0 0 1 .06-.1.16.16 0 0 0 .05-.05c0-.02 0 0 0 0s-.02 0 0 0v-.03h.01c.01.02.01.02.03.01a.33.33 0 0 0 .06-.08s.02-.02 0-.01c-.04 0 0 0 0 0l.02-.01a.12.12 0 0 0 .04-.04.12.12 0 0 0 .01-.06s0-.02.02-.02c0 0 .03 0 0 0v-.03c0-.04.04-.05.05-.09 0-.03-.02.01-.02.01v-.02l.01-.01a.13.13 0 0 0 .05-.08c0-.04.03-.06.05-.09.02-.02.06-.02.06-.06l-.01.02c.01 0-.02-.03.01-.04 0 0 .03 0 0 0a.2.2 0 0 0 .04-.11l.02-.1c0-.03 0 0 0 0 .02 0 .04 0 .05-.02.02-.04.03-.09.02-.13l.02-.1c.02 0 .02 0 .02-.03v-.03c.02-.03.01-.06.02-.1.02-.02 0 0 .02 0v.03c.02.01 0 0 0-.01a.16.16 0 0 0 .03-.07.02.02 0 0 1 .01 0l.01-.01c.04.02.03 0 .03 0v-.11a.1.1 0 0 0 0-.05.1.1 0 0 0-.03-.03l.03-.02c.02-.01 0-.03.02-.04h-.01s-.03-.02-.02-.04v-.04.01l.02-.01v-.02c-.03-.06-.03-.06 0-.1a.1.1 0 0 1 0-.05l-.01-.02h-.01s0 .02-.01.01v-.08c.02-.01.01-.04.02-.05v-.02l-.02-.01-.01-.04s0-.05.03-.06l.01-.03c-.02-.01-.01-.03 0-.04 0-.02 0-.03-.02-.04a.07.07 0 0 1-.03-.02.06.06 0 0 1 0-.03v-.02l.01.01-.05-.1v-.02s.02-.03 0-.03l-.02-.01v-.02.01h.02l-.02-.05v-.05a.3.3 0 0 0-.04-.08.36.36 0 0 1-.04-.12v-.09c.02 0 0 0 0 .01v.01l.01.01c.02 0 0 0 0-.01a.33.33 0 0 0-.05-.12c-.01-.02 0-.04-.03-.05h.03v-.01a.19.19 0 0 0-.01-.06c-.01 0-.02-.03 0-.03.03 0 .03 0 .01-.01-.02 0 0-.01 0-.02-.01 0 0-.03-.03-.01 0 0-.02.02 0 0 0 0-.03-.06-.02-.09v-.02l-.02-.02c0-.01-.03-.03 0-.04h-.01c-.03.02-.03 0-.04-.02v-.03c-.02-.02 0-.02.01-.03v-.02l-.02-.01h.02a.33.33 0 0 0-.03-.07.18.18 0 0 1-.04-.08c0-.03-.02-.05-.03-.07 0 0-.01.03-.02.01v-.05s-.03-.01-.02-.02c.01-.02.02-.01 0-.02-.02 0-.03-.03-.03-.06v-.02l-.02-.01c0-.01 0-.03-.02-.04a.08.08 0 0 1-.02-.04v-.04c0-.02 0-.03-.02-.04v-.09c.02 0 0-.02 0-.02-.02 0-.03 0-.02-.03.02-.02.01-.04-.02-.04s0-.02-.01-.03c0-.01-.03-.03 0-.04.03-.01 0 0 0 0l-.02-.02c-.02-.01-.02-.07-.02-.1 0-.04 0-.07-.02-.1v-.01a.23.23 0 0 0-.05-.1l.02-.01c-.05-.03-.02-.1-.06-.12-.03-.03-.03-.06-.04-.1 0-.04-.02-.09-.04-.13v-.01s0-.05-.02-.07h-.01v-.04l-.01-.03a.1.1 0 0 1-.03-.04.1.1 0 0 1 0-.05v-.05a.1.1 0 0 0 0-.04.27.27 0 0 1-.03-.1.58.58 0 0 1-.03-.16c-.03-.02-.02-.06-.02-.09a.65.65 0 0 1-.02-.17V36.52h-.01c-.02-.02 0-.04 0-.06v-.04c.02 0 .02 0 0 0v-.06c.03-.02.02-.02 0-.02s0 0 0-.01v-.2c.02-.02 0-.03 0-.05 0-.05.03-.1.04-.14h.02a.04.04 0 0 0 .03-.03l.01-.01h.02c.01-.01.01-.02.01 0a.8.8 0 0 0 0 .1c0 .03.01.05 0 .07 0 .03 0 .02.01.02l.01.03v.24l.02.22.01.03v.07c0 .03 0 .06.02.08l.01.01v.02c0 .02 0 .04.02.06l.02.14.02.05.02.08.01.1c.02.03 0 .06.01.09l.05.1a.47.47 0 0 1 .06.17c.01.05.04.08.06.12.02.04 0 .06.03.07-.02.02 0 .04 0 .06l.05.13a.3.3 0 0 1 .03.13c0 .03.02.05.04.08l.03.06-.01.03c-.02 0 .01.02.02.04.02.04.06.08.04.14l.03.06v.02c.02 0 .03.01.02.03v.01-.01l.02.06v.01h.02v.04c.03.03.04.06.04.1l.02.07v.02l.02.02.01.04c.01.05.05.1.04.15v.1l.05.1-.01-.02v-.02c.02 0 .01.02.01.03.04.1.07.21.09.33l.02.14.02.05.03.15V40l.02.04c.02.05.02.1.02.14v.1a.1.1 0 0 1 .01.07v.15s-.01.02 0 0c0 0 .02.02 0 .02V40.7a2.23 2.23 0 0 1-.06.42c.01.03-.02.06-.02.1-.01.03-.04.1-.04.17a.1.1 0 0 1-.02.04l-.01.02v.02c.01.02-.01.03-.02.04 0 .01 0 .06-.02.09l-.06.17s-.01.02-.02 0v.02c-.02.01 0 .02 0 .02h.01c.01-.01 0 0 0 0-.03 0-.03.05-.05.07a.83.83 0 0 0-.1.22v.02a.17.17 0 0 0-.05.11c-.05.03-.05.08-.09.12-.01 0-.03.01-.03.05 0 .03 0 0 0 0-.04.02-.05.05-.06.07l-.02.02h-.03l-.01.03a.27.27 0 0 1-.1.12c-.04.02-.03.07-.06.1h-.01c-.02.01-.03.02-.03.04v.02l.02-.02c0-.02-.03.01-.03.02-.02.06-.08.08-.1.13-.02 0-.03.01-.03.03l-.01.01c-.02 0 0 0-.01-.01 0-.01-.01-.02-.03-.01-.03.01 0 0 0 0 0 .02 0 .01-.02.02a.14.14 0 0 0-.06.03c.1-.1.03-.1 0-.13Zm.79-4.6-.01-.02v.02Zm.2.64v.02-.01l-.01-.03v.02Zm-.17.07v-.01.01Zm.12.45-.01-.02v.02Zm.1.81v-.02c-.02 0 0 0-.02.02h.02Zm-.41 1.6.02-.01v-.03h-.01c0 .01-.03.02-.02.04Zm-.06.11h.01v-.02c-.02 0-.01.01-.01.02ZM101.58 47.38s-.01.02-.02 0h-.06a.2.2 0 0 1-.05-.08l-.02-.02a.08.08 0 0 1-.03-.03.09.09 0 0 1-.02-.04v-.02a1.46 1.46 0 0 0-.07-.09v-.02l-.02-.01a.16.16 0 0 1-.07-.1.17.17 0 0 0-.03-.07l-.02-.02v-.02c0-.01.02-.01.01-.02a.51.51 0 0 0-.04-.1s0-.03 0 0c-.01.02 0 0 0 0a.1.1 0 0 1-.02-.04l-.01-.05a.14.14 0 0 0-.04-.05s-.02-.01-.01-.02c0 0 .01-.02 0 0l-.02-.03H101c-.02-.03-.01-.07-.04-.1v.02c-.02 0-.02-.01-.02-.02v-.01a.13.13 0 0 0-.04-.1.25.25 0 0 1-.03-.1c-.01-.04.02-.07-.01-.1v.03l-.02-.04a.24.24 0 0 0-.05-.11c-.03-.02-.03-.07-.05-.1l-.01-.01s.03-.02.03-.04a.23.23 0 0 0-.07-.12.35.35 0 0 1-.04-.1v-.04l-.02-.02a.6.6 0 0 1-.03-.1v-.01h.02v.01-.1h.02c.03 0 0-.03 0-.03a.4.4 0 0 0-.06-.14.13.13 0 0 0-.04-.02.1.1 0 0 1 .02-.03c.02-.02 0-.03 0-.05 0 0 0-.02 0 0 0 0-.03-.02-.03-.04v-.02l-.01-.02s-.01 0 0 0h.02v-.02l-.01-.01c-.05-.04-.05-.04-.03-.1a.1.1 0 0 1-.02-.06v-.01h-.01v.02h-.02c0-.01-.02-.08 0-.1v-.07l-.03-.02-.01-.03s-.02-.06.02-.07c.03-.02 0-.02.02-.03-.02-.01-.03-.02-.01-.04.01-.03 0-.03-.02-.04a.07.07 0 0 1-.03-.02.07.07 0 0 1-.01-.03v-.02l.03.01h.01c0-.01 0-.04-.02-.04h-.01v-.02c0-.01 0 0 0 0 .02.02.02 0 .02 0l-.03-.05v-.05a.75.75 0 0 0-.04-.09.3.3 0 0 1-.03-.13v-.07c-.02-.03 0-.02 0-.02h.02c0 .01 0 .03.02.03v-.03a.35.35 0 0 0-.05-.12c-.02 0 0-.04-.02-.05h.03V43.69c-.02 0-.02-.03 0-.02.04 0 .03 0 .02-.02-.02 0-.01 0 0-.02 0-.01 0-.03-.03-.01-.03.02 0 0 0-.01-.02 0-.03-.06-.02-.1.02-.02 0-.02 0-.03 0-.01-.02-.04.01-.04l-.02-.02s-.02-.01-.02-.03v-.03c0-.01 0-.03.02-.03l-.02-.01v-.01c.03-.01.02-.02.02 0v.01-.07a.22.22 0 0 1-.01-.1c.01-.01-.01-.04 0-.07-.01 0-.02.03-.02 0v-.06s-.02-.01 0-.03v-.01s-.02-.04 0-.07v-.08a.1.1 0 0 1 0-.08c.01-.02-.01-.03-.01-.05a.1.1 0 0 1 .02-.08c.02-.01.02-.02 0-.03-.02-.01-.02-.02 0-.03 0-.01.02-.03-.02-.04 0 0 .02-.02 0-.04 0-.01 0-.03.02-.03v-.04a.3.3 0 0 1 .02-.1V42.18a.2.2 0 0 0 0-.1c-.03-.04 0-.02 0-.02h.01v.01c.03 0 .02-.01.02-.01-.03-.04.01-.09 0-.13-.02-.04 0-.07-.02-.1 0 0-.01-.03 0 0 .02-.05.02-.1.01-.15l.01-.01.01-.01v-.07c-.02-.02-.02-.03 0-.04.03-.01.02-.01.01-.03v-.1a.09.09 0 0 0 .03-.04v-.14l.03-.17c-.03-.02 0-.06 0-.09 0-.06.02-.11.04-.17.02-.03.01-.08.03-.11v-.04c-.02-.01.02-.03.01-.05.03 0 .01-.01.02-.02v-.01c.02 0 .02 0 0 0 0 0 0-.04.02-.06v-.02h-.02l.03-.11c0-.03 0-.06.02-.08v-.06a.5.5 0 0 1 .06-.13l.01-.02h.02l.01-.02.03-.02.02.01-.01.1-.01.07c-.01.01-.02.02 0 .03v.02c-.02.03-.02.07-.02.1l-.03.1v.05l-.04.22v.03l-.02.08a.12.12 0 0 0 0 .08V41a.1.1 0 0 0-.01.06c0 .05 0 .1-.02.14v.06l-.01.08a.32.32 0 0 0-.02.1c0 .03-.03.06-.02.09V41.96c0 .04-.02.05 0 .08-.03 0-.02.03-.02.05 0 .05-.02.1 0 .14 0 .05 0 .1-.02.14a.2.2 0 0 0 .01.08l.01.06c.01.02 0 .02-.02.03-.02 0 0 .03 0 .04 0 .02.04.1 0 .15v.06l.01.03.02.02s0 .02-.01.01h-.01l-.01-.01V42.9c.02 0 .01-.01.01-.01a.47.47 0 0 1-.02.03v.01c.02.03.02.07.02.1v.07c-.02.01-.01.03 0 .04.02.01.02.03.02.05v.15l-.01.1c0 .03.02.06.01.1l.01-.01.01-.02c.02 0 .02 0 .01.02 0 .11.04.22.04.33l.02.15c0 .05.02.03.02.05a.85.85 0 0 1 .03.22s.02.01.02.03l.04.13v.07c-.02 0-.02.02 0 .03a.1.1 0 0 1 .02.06.87.87 0 0 1 .02.14c0 .02 0 0 0 0s.02.01.01.02v.05l.03.1.06.26.05.14c.01.02 0 .06.02.09.01.03.02.11.05.16v.05l.01.02.01.01c.02.01 0 .03.01.04l.04.08.02.1s.01.02-.01 0c-.03 0 0 .01.01.02h.02v-.01l.02.09c.02.08.05.15.1.21v.03c0 .01 0 .03.02.05 0 .02.02.03.03.05-.01.04.04.07.04.12 0 .05 0 .05.03.06 0 0 .02 0 0 0-.02.02.02.05.03.07v.05l.01.03c.04.04.06.08.07.13 0 .05.04.06.06.1a.04.04 0 0 0-.03.02v.03l.03.02h.03l.02.02-.02-.02.01.03c.05.04.05.1.08.14.01.01.01.03.03.03v.01c-.01-.01-.03 0-.02.02v-.01.03l.03.06c0 .02.01.05 0 .07 0 .02-.01.05-.03.06Zm-1.19-4.77v-.01s0 .01 0 0Zm.02.66v.02c.02 0 0 0 .01-.01v-.02l-.01.01Zm-.17.04v-.02.02Zm.05.48v-.01l-.01-.03v.04Zm.13.84v-.01c.02-.01 0-.02 0-.02v.02Zm.48 1.7v-.03c0-.02-.01-.03-.03-.02v.02c.01.02 0 .02.04.02h-.01Zm.05.11v-.02l.01.02ZM109.26 39.91h-.03c-.02-.06-.03-.04-.03-.04 0 .01-.02 0-.03-.02a.78.78 0 0 1-.1-.17.1.1 0 0 0-.03-.05.38.38 0 0 1-.07-.15l-.02-.06-.1-.2a.35.35 0 0 1-.01-.06l-.01-.04a.7.7 0 0 1-.09-.25l-.03-.16-.01-.02v.02l-.03-.06v-.04h.01c.01 0 .02 0 .02-.02l-.05-.22c0-.01 0-.07-.01-.02v-.08a.8.8 0 0 0-.05-.25c0-.02-.02-.04 0-.06.03-.02 0-.02 0-.02V37.85v.04-.04l-.03-.24s0 .06-.01.03a.14.14 0 0 1-.02-.07.9.9 0 0 0 0-.23c-.02-.07-.02-.15 0-.23 0-.07.03-.12.01-.2v.06c0-.03-.02-.06 0-.09V36.59c-.02-.07 0-.15 0-.22v-.01s.03 0 .04-.07v-.54a.14.14 0 0 0 .02-.08v-.06c0-.08 0-.15.02-.23v-.02.05-.04l.03-.14c0-.04.02-.05.02-.04 0 0 .02-.02.02-.05l.02-.23a.5.5 0 0 0-.02-.18v-.03l.03-.04c.03-.01.01-.06.03-.09 0-.03-.02 0-.02 0v-.1l.02-.09v-.02.03a.16.16 0 0 0 .01-.08.32.32 0 0 1 .03-.23v-.02c0-.04 0-.08.02-.12v-.04l-.01.04-.01.02v-.02c0-.07.01-.13.03-.19.03-.04.02-.08.03-.11v-.16c.02-.05.01-.13.05-.15l.02-.05v-.07l.01-.04a.1.1 0 0 0 .01-.05.1.1 0 0 0-.01-.04.3.3 0 0 1 0-.14v-.04.07l.02-.03v-.08c-.02-.02 0-.05 0-.06v.02-.13l.03-.12v-.18l.01-.29.02-.17c0-.02 0-.04.02-.04v.09-.05c.01-.09.01-.18 0-.28 0-.03.02-.08 0-.11.01-.03.02 0 .02 0 .01 0 .01.03.02-.02v-.12c0-.04 0-.07.01-.05.02.01.02 0 0-.04a.1.1 0 0 1 0-.05c0-.03.01-.07-.01-.04-.02.03 0 0 0-.02v-.28c0-.03-.02-.08 0-.09v-.02c-.03.01-.03-.04-.03-.08v-.06c0-.05 0-.06.02-.05.02 0 0-.03-.01-.05v-.03c0-.01 0-.02 0 0v.03V30.4a1.52 1.52 0 0 1-.03-.2l-.03-.16c0-.04 0 .04-.01 0v-.07a.1.1 0 0 0-.02-.05c-.02-.01-.02-.03 0-.05v-.04a.2.2 0 0 1-.03-.14l-.02-.08c-.02-.02-.02-.06-.03-.09a.61.61 0 0 1-.05-.17c0-.04-.03-.06-.04-.09a.43.43 0 0 1-.04-.17v-.04a.07.07 0 0 0-.02-.03c-.02 0-.03 0-.03-.05 0-.01-.01-.07-.05-.08 0 0 0-.04-.02-.07 0-.02-.04-.06-.02-.07v-.03c-.03 0-.04-.03-.05-.05a.89.89 0 0 1-.09-.2 1 1 0 0 0-.08-.18l-.01-.01c-.01.02-.02-.02-.03-.03a1.07 1.07 0 0 0-.13-.2v-.03h.01c.01.02.01.03.02.02l-.02-.03c-.06-.06-.1-.16-.16-.22-.07-.06-.09-.12-.14-.17l-.01-.02a1.28 1.28 0 0 0-.2-.25v-.04c-.05-.01-.06-.07-.1-.1a.13.13 0 0 1-.05-.08.16.16 0 0 0-.04-.05.57.57 0 0 1-.13-.16.53.53 0 0 0-.11-.15 1.5 1.5 0 0 1-.13-.17c-.07-.1-.16-.17-.22-.28a2.96 2.96 0 0 1-.34-.44l-.14-.2a.12.12 0 0 0-.05-.06c-.03-.02-.04-.07-.06-.1 0-.02 0-.03-.03-.04-.03-.02-.02-.03-.02-.03v-.02a.18.18 0 0 1-.06-.11c-.01-.03-.02-.04-.03-.03-.01.02-.01 0-.02-.02l-.12-.2a.8.8 0 0 1-.09-.16 1.83 1.83 0 0 1-.18-.38v-.03l-.01-.08a.13.13 0 0 1 0-.05c0-.03 0-.02.02.01l.1.2.07.13.02.03.03.05.11.19c.04.05.08.11.1.17l.08.1.26.38.05.06.09.13.11.14a.2.2 0 0 1 .05.06l.08.1.2.24.08.1.1.13.13.17.12.16a2.03 2.03 0 0 1 .17.2l.15.17.1.15.18.23.1.14c0 .04.03.08.05.1l.16.28c.06.08.1.16.14.26l.1.16.06.12c.03.04.02.05.01.06l.05.1c.05.1.1.2.11.32l.05.12c0 .02 0 .04.02.06l.02.05c0 .02.02.04 0 .04l-.01-.03-.02-.01.04.14.01.03v-.02c.02.02 0 .03 0 .05a.1.1 0 0 0 0 .05l.06.21.02.18c0 .03 0 .06.02.09a.2.2 0 0 1 .01.1l.03.34v.45V31v.05c0 .25 0 .5-.03.75l-.03.32v.11c0 .11-.01.21-.03.32 0 .06 0 .12-.02.17-.02.06 0 .06 0 .1l-.03.29-.02.11-.01.05-.02.02v.19a2.12 2.12 0 0 1-.06.3s0 .02 0 0v.05a.25.25 0 0 0-.02.1l-.04.25-.08.56-.04.32-.03.2c0 .13-.03.25-.03.38l-.02.1V35.9c0 .06 0 .13-.02.19l-.02.38c0 .02 0 .05-.01.02v.04c0 .02 0 .04.01.01l.01-.01v.02a2.93 2.93 0 0 0 0 .75c0 .08 0 .16.03.24v.01c0 .1 0 .2.02.29l.01.13V38c0 .06 0 .12.03.17v.16c.04.1.06.2.08.32.01.07.04.15.07.22v.03c0 .04.01.07.03.1l.03.03s0 .02 0 0l-.02-.04c0 .03 0 .05.02.07.05.1.07.22.12.32a.32.32 0 0 0 .05.09v.01c0 .03-.01 0-.02 0 0-.01-.02 0 0 .03v-.01c.02.01.02.03.02.05 0 .05.02.1.05.13.06.09.08.23.06.23Zm-.33-10.76v-.02l-.01-.03c-.02 0 0 .01 0 .02l.01.03Zm.27 1.46v.04-.08.04Zm-.14.06v-.03c0-.03 0-.02-.01-.02l.01.05Zm-.01 1.02v-.07.02a.1.1 0 0 0 0 .05Zm-.22 1.82.01-.03v-.04l-.01.04v.03Zm-.36 3.8c.02 0 0-.03 0-.05a.1.1 0 0 0 0-.06v.04c0 .02-.01.07.01.07Zm.03.3v-.05.05ZM107.83 45.75l-.01-.01-.01-.03-.02-.01c0-.01 0-.03.02-.04.02 0 0 0 0-.01l.01-.03h.01v-.04s0-.03.02-.04c.02-.01.02 0 .02-.02v-.01h.02c0-.02.02-.02.03-.03v-.01c-.02-.01 0 0 0 0 .03 0 .03-.02.03-.04-.01-.02-.01-.02 0 0 0 0 0 .02 0 0 0-.01.02-.01.02-.03h-.02c-.02 0 0-.01 0-.01s.02-.01.02-.03c0-.02.02-.02.03-.02.01-.01.05 0 .05-.02v-.01c0-.01.02-.02 0-.05-.03-.02 0-.02 0-.03-.02-.02 0 0 0 0h.05v-.05c-.02-.02 0-.03 0-.04.02 0 .02 0 0 0v-.01s0-.03.02-.04c0 0 .02 0 0 0l.03-.01h.04v-.04c0-.02 0-.03-.03-.05-.03-.02 0 0 0 0h.05s.01-.02 0 0l-.02-.03v-.02c-.01-.01 0 0 0 0s.01 0 0 0c-.01-.02-.02-.04.02-.04v-.02s0-.03.02-.03l.02-.01v-.03s0-.02.04-.01h.01v-.02c.02 0 0 0 0-.01l-.02-.04h.02s.01 0 0 0l-.02-.02c-.02-.02 0 0 0 0s.02-.02 0 0h.02c-.01 0 0-.02-.02-.03 0 0 .02-.01 0-.02v-.08l.02-.02c0-.02 0 0 .01 0 0 0 .01 0 0 0h.01s.01.01 0 0l-.01-.04c-.01-.02.02-.01 0-.02h.04v-.03h.02c.02.02.02 0 0 0-.03 0 0 0 0 0h-.02c-.02-.02 0 0 0 0v-.05c0-.02-.01-.02.02-.02h-.02c-.03 0-.02 0-.02-.02h.05v-.08h-.02v-.01s0-.01 0 0c.02 0 .03 0 0 0v-.03c.02 0 .02 0 0 0v-.03s0-.02.02-.02c.01-.01-.01-.02-.01-.02l.03-.03c.02 0 0 0 0 0-.02 0 0-.02 0 0 .03 0 .03-.02 0-.03-.02 0 0 0 0 0 0-.02 0-.02.02-.02 0 0 .03 0 0 0l-.01-.01c-.02-.01 0-.03.02-.04l.01-.03c-.02 0 0 0 0 0s.02-.02 0-.04c0-.01 0 0 0 0h.01v-.04c0-.02 0-.03-.02-.04l.01-.03v-.03c-.03 0 0-.01 0-.02 0 0-.02 0 0-.02 0 0 .01 0 0 0 0 0-.02-.02 0-.03v-.03c-.02-.02 0-.03 0-.04 0-.01-.02-.04 0-.06-.03 0-.02-.02-.02-.03 0-.01-.01-.04 0-.07.02-.02 0-.03 0-.04v-.03c.03 0 .02 0 0-.01-.01-.01 0 0 0 0s.02 0 0 0v-.02c.02-.01.02 0 0 0v-.07c.02-.02 0-.02 0-.02l.02-.06c0-.02 0 0 .01 0 .02 0 .02 0 .02-.02s0 0 .02 0c.02-.02.02 0 .02 0s.02.01.02.03v.02c-.01.02 0 0 0 0v.08l.01.02c0 .01.02.06 0 .08v.07h.02v.16s-.02.02 0 .04c.01 0-.02.02 0 .03v.04l.01.05V44c-.02 0-.01.02-.01.02s-.02.04-.01.06v.11h-.02v.02s.03.04-.01.05c-.04.02 0 .02 0 .03l.01.02s0 .01 0 0v.02s0 .01 0 0h.02-.02c-.01 0 0 0 0 0l.01.02v.02l-.02.03v.03s0 .05-.02.07l-.03.02v.04s.02 0 0 0c0 .04 0 .1-.02.13l-.03.05.01.03-.01.05s0 .02-.02.03V44.95h-.02c-.01 0-.01 0 0 0 .02 0 0 .02 0 .03 0 0 0 .02-.02.03-.02.01 0 .01 0 .02 0 0 .02 0 0 0h-.02l-.01.05-.05.1c0 .02-.02.02-.02.05 0 .02-.02.01-.02.02l-.03.06c0 .03 0 .01-.02.02v.02c.02.01 0 0 0 0-.02.02 0 .03-.02.04l-.04.05h-.01c-.02 0 0 0 0 0l.01.01-.03.02a.12.12 0 0 0-.04.08s-.03.02-.02.05c-.04 0-.02.03-.04.03-.02.01-.02 0-.01.03 0 0 0 .02 0 0 0 0-.02 0-.03.02h-.02c-.01 0 0 0 0 0 0 .02 0 .05-.03.06-.03 0-.01.02-.02.04-.02 0-.01 0 0 .01.02.02 0 .01 0 .02 0 0-.01 0 0 0l-.05.05v.01s0 .02 0 0h-.02.01-.02c0-.01 0 0 0 0h-.02c.12-.07.06-.1.04-.12Zm.88-1.65Zm-.23.22h-.02.02Zm-.05.17v-.01s-.01 0 0 0Zm-.1.28h-.02.01Zm-.34.53c0-.02 0 0 0 0s-.02-.01 0 0Zm-.02.05ZM99.97 36.44h-.02a.02.02 0 0 0-.03 0h-.03c-.01-.02-.05-.07-.06-.12-.02-.05-.02-.02-.03-.02a.11.11 0 0 1-.04-.04.13.13 0 0 1-.02-.05v-.04l-.08-.12a.08.08 0 0 1 0-.03l-.01-.02v-.01a.23.23 0 0 1-.07-.15.4.4 0 0 0-.03-.1v-.02c-.02 0 0 0 0 .02h-.02l-.02-.04v-.02h.01c.01 0 .02 0 .02-.02l-.03-.14s0-.05-.02 0c-.02.04 0 0 0 0v-.04c.01-.06 0-.12-.03-.16 0-.02-.02-.03 0-.04 0 0 .03-.02 0 0l-.01-.04v-.05.02-.03c-.02-.05 0-.1-.02-.15 0 0 0 .04-.02.02l-.01-.02v-.17c-.02-.05-.02-.1 0-.15 0-.05.03-.08.02-.13v.04c0-.02-.02-.04 0-.06 0-.06 0-.12-.02-.18-.01-.04 0-.1 0-.14.02 0 .04 0 .05-.04a.46.46 0 0 0 0-.2v-.14c.02-.03.02-.03.01-.06a.1.1 0 0 1 0-.04c0-.05 0-.1.02-.14v-.02.01a.36.36 0 0 0 .03-.09c0-.02.02-.03.02-.02.01 0 .02 0 .02-.03l.01-.14c.01-.05 0-.1-.02-.13v-.01l.04-.03c.03 0 0-.03.02-.05.02-.02 0 0 0 0s-.03-.04-.02-.07a.1.1 0 0 0 .01-.06v-.01.02l.01-.02v-.03c-.01-.08-.01-.08.04-.14v-.02a.2.2 0 0 1 0-.07v-.03.02l-.01.02v-.02c.01-.04.02-.1.04-.11.02-.02.02-.05.03-.07l.01-.02v-.03a.07.07 0 0 1 0-.06c.02-.02.02-.08.06-.07l.02-.03v-.02s0-.03.02-.05l.01-.01v-.02a.04.04 0 0 0 0-.03.1.1 0 0 1 0-.09l.01-.02v.04-.02c.01 0 .03-.04.01-.05V32l.02.01h.01v-.07l.04-.08a.67.67 0 0 0 .02-.11c0-.06.03-.12.05-.18a.44.44 0 0 0 .05-.1s0-.02.02-.01v.05-.02a.62.62 0 0 0 .04-.18c0-.02.03-.04.01-.07.02-.01.02 0 .03.01 0 .02 0 .03.01 0a.32.32 0 0 0 .03-.07c0-.02 0-.04.02-.02.03.01.03 0 .02-.02v-.03c.01-.02.03-.03 0-.03-.02 0 0 0 0-.02 0-.01.02-.08.05-.1a.09.09 0 0 0 .03-.06c0-.02 0-.05.03-.04l-.01-.02c-.01 0-.02-.04 0-.06l.02-.04c0-.02.02-.02.03-.01v-.03c0-.02 0-.02.02-.03v.02c0 .02 0 0 0 0a.66.66 0 0 0 .04-.08.4.4 0 0 1 .05-.13l.04-.09c0-.02-.03.02-.02-.02l.03-.03v-.03c-.02-.02 0-.03.01-.03.02 0 .02 0 .02-.02s0-.07.03-.09a.05.05 0 0 0 .03-.04v-.06c0-.04.02-.08.05-.1.02-.02 0-.04 0-.06a.15.15 0 0 1 .07-.09c.02-.01.02-.03 0-.05-.01-.01 0-.02.01-.03.02-.02.04-.03.02-.06l.02-.04c0-.02 0-.05.03-.04.03 0 0 0 0-.01v-.05a.32.32 0 0 1 .07-.12.52.52 0 0 0 .05-.1c-.02-.01 0-.03 0-.04.03-.04.04-.1.05-.14 0-.02 0 0 .01-.01.01 0 .02-.01 0 0v.01c.01 0 .02-.01 0-.02.01-.06.05-.1.05-.16s.03-.1.03-.14v-.01a.53.53 0 0 0 .07-.2h.01c.01 0 .02 0 .02-.02 0-.01.02-.05 0-.09v-.03l.03-.02v-.04c0-.05.01-.1.04-.13a.17.17 0 0 0 .03-.11l.04-.14c.02-.07.02-.15.05-.22-.02-.04 0-.08.01-.12l.04-.22.04-.16.01-.02v-.03c-.02-.02 0-.04 0-.07.03 0 .02-.02 0-.03v-.02s.02 0 0-.02l.01-.08c0-.03.02-.03 0-.02V27a9.47 9.47 0 0 1 .05-.53s0-.02.02-.02l.02-.03v-.02l.02-.04c.02-.01.02 0 .02.02l.02.14v.16a.4.4 0 0 0 0 .15v.14l-.01.08-.03.3v.06l-.02.1a.29.29 0 0 0-.01.12v.05c-.01.03-.02.06-.01.09 0 .07-.02.14-.04.2a.7.7 0 0 1 0 .08l-.04.11a.6.6 0 0 0-.04.14c0 .05-.04.08-.05.12l-.03.15c-.01.1-.03.18-.07.26l-.05.18c-.02.06-.04.07-.03.1-.03 0-.03.05-.04.07a1.5 1.5 0 0 0-.07.19.51.51 0 0 1-.08.17.43.43 0 0 0-.03.11c0 .03-.03.05-.03.09 0 .03 0 .03-.02.02-.03 0 0 .04-.02.06-.03.07-.03.15-.09.2-.02 0-.02.05-.03.07h.1c.02 0 0 .03 0 .04 0 .01 0 .03-.01.02-.02 0 0-.01 0-.02v-.02c0 .04-.02.06-.04.09v.02c.01 0 .02-.02.02 0l-.02.02h-.02v.02c0 .05-.02.1-.05.13l-.05.1c0 .01-.02.03 0 .05.01.02 0 .04-.02.06-.04.06-.05.14-.1.2l-.06.1-.05.14.01-.02c.02-.01 0-.02.02-.02v.03c-.07.14-.11.3-.18.43l-.08.18c-.03.06 0 .04 0 .07a2.02 2.02 0 0 1-.11.29c-.02.02 0 .03 0 .06l-.06.17-.02.07c0 .01 0 .02-.02.02 0 0-.02.03-.01.04l-.01.1a.7.7 0 0 1-.04.12s0 .04-.02.05c-.02.02 0 0 0 0v.03l-.02.03-.01.03c0 .05-.03.1-.04.15l-.08.34a.99.99 0 0 0-.03.2l-.03.13a1.8 1.8 0 0 0-.04.28v.11l-.02.12-.02.22c0 .02 0 .04-.01.02v.02s0 .02.01 0v.02c-.02.03 0 .08 0 .12-.02.1-.01.2 0 .3v.04c0 .05 0 .1.02.15-.02.06.02.11.02.17V35.21c-.01.04.01.08.02.11a.08.08 0 0 1 0 .06v.04c.03.06.05.13.06.2 0 .05.03.08.05.13v.02c0 .02 0 .04.03.05l.02.02s-.02 0-.02-.02l.01.03c.05.06.05.14.09.2 0 .01 0 .03.02.04.02 0 .01 0 .01.01 0 .02 0 0-.01 0 0 0-.03.02-.02.04v-.02.04c0 .03.01.05.03.08.02.03.02.07.02.1 0 .04-.02.07-.05.1Zm.97-6.5v-.02c-.01 0 0 0 0 0v.03Zm-.38.84v.03-.05.02Zm-.17-.05.02-.01v-.03l-.02.04Zm-.25.6v-.04.04Zm-.4 1.1.02-.03v-.02l-.01.02c-.02 0-.01.02 0 .02Zm-.37 2.41c.02 0 0-.02 0-.03v-.04.03s-.03.04 0 .04Zm.02.2.01-.02V35l-.01.03ZM103.47 44.48h-.02s-.03-.03-.04-.02l-.02-.01a.48.48 0 0 1-.08-.13c0-.02-.02-.02-.03-.03a.17.17 0 0 1-.07-.1v-.05l-.1-.14a.14.14 0 0 1 0-.04l-.02-.03a.34.34 0 0 1-.08-.18.64.64 0 0 0-.04-.1v-.02c-.02 0 0 0 0 .01 0 .02 0 0-.02 0l-.02-.03v-.03h.01c.01 0 .02 0 .02-.02l-.05-.16s-.01-.05-.02 0v-.06a.33.33 0 0 0-.06-.17c-.01-.02-.03-.03-.01-.04.02-.02 0-.02 0-.02l-.02-.04v-.02.02l-.01-.03-.04-.16s0 .03-.02.02l-.01-.02v-.03a.37.37 0 0 0-.04-.16.64.64 0 0 1-.02-.17c0-.05.03-.09 0-.15v.05c0-.03-.03-.04-.02-.07a.67.67 0 0 0-.04-.2l-.04-.16v-.01c.02 0 .04-.01.04-.06a.6.6 0 0 0-.04-.2.93.93 0 0 1-.03-.17V41.43l-.01-.17v-.02.04-.03l.01-.1c0-.03.01-.04.02-.04s.02-.01.01-.03l-.01-.17c0-.05-.03-.09-.05-.13v-.02l.03-.03c.02-.01 0-.05 0-.07 0-.02-.01 0-.01 0s-.03-.03-.03-.07v-.08.02a.07.07 0 0 0 0-.06c-.03-.09-.03-.09 0-.17v-.13.04-.01c0-.05 0-.12.02-.14.01-.02 0-.06.02-.09v-.05l-.01-.03v-.03c.02-.04 0-.1.04-.11 0 0 0-.03.02-.04.02-.02 0 0 0-.02 0 0-.02-.03 0-.06l.01-.04v-.03a.14.14 0 0 1-.03-.1l.01-.03c.02 0 0 .02 0 .03v.02-.02l-.01-.06c-.02-.01-.02-.04 0-.05v.02c.02 0 .03-.01.02-.02l-.01-.07c-.02-.02 0-.06 0-.1v-.13a.65.65 0 0 1 .01-.2.84.84 0 0 0 .02-.12v-.03.03l.01.04c.02 0 0-.03 0-.04a.9.9 0 0 0 0-.2c0-.03.03-.06 0-.08.02-.02.03 0 .03 0s.01.02.02 0v-.1c0-.02 0-.04.02-.03.02 0 .02 0 0-.03v-.03c0-.02.02-.05 0-.03-.04.02 0 0 0-.02l.01-.14v-.06c0-.03 0-.06.02-.07l-.01-.01-.02-.07v-.04c0-.01.01-.04.03-.03v-.06h.02v.02-.26c.02-.04 0-.07.02-.11v-.01c0-.01-.02.03-.02 0l.02-.05v-.1a.1.1 0 0 1 0-.06.1.1 0 0 1 .02-.05.06.06 0 0 0 0-.05v-.08c0-.04 0-.08.02-.12v-.08a.2.2 0 0 1 .05-.11v-.06c-.01 0-.03-.02 0-.04.02-.02.03-.05 0-.07l.01-.05c0-.02 0-.06.02-.06s0-.01 0-.01v-.06c0-.05.02-.1.04-.16l.03-.13V35.83l.01-.02h.01v.02-.02c-.02-.07.03-.14 0-.2-.02-.07 0-.11 0-.17v-.01a.7.7 0 0 0 .03-.23v-.02c.02 0 .02-.01 0-.02l.01-.1v-.04L103 35v-.05c0-.05 0-.1.02-.15.02-.04.02-.1.01-.14v-.15c.01-.09 0-.18.02-.27a.22.22 0 0 1 0-.14v-.27c.02-.06 0-.12.02-.18v-.06c-.02-.02 0-.05 0-.08.02 0 0-.02 0-.04-.02-.02 0-.02 0-.02v-.02a.08.08 0 0 1-.02-.05c0-.01 0-.03.02-.04v-.03c-.02 0 0 0 0-.02v-.17c-.01-.05 0-.1 0-.14l-.01-.08a1.23 1.23 0 0 1 0-.24h.01l.02-.03v-.03l.02-.04c.02-.02.02-.01.02.01l.03.16.01.11h.03l.02-.01c.02 0 .01.04.01.04l.01.16v.16l.01.1v.51c-.01.05-.01.1 0 .14a.1.1 0 0 1 0 .06v.55a.81.81 0 0 0-.03.16l-.02.15v.35l-.02.13v.21a.31.31 0 0 0 0 .13c-.03.01-.02.06-.02.08a1.6 1.6 0 0 0-.04.23c0 .07 0 .14-.03.2a.6.6 0 0 0 0 .14v.13l-.02.01v.07c0 .08 0 .17-.04.24v.14c.02 0 .02.02.01.04v.03c-.02 0 0-.02 0-.03h-.02c0 .04 0 .07-.02.1v.03s.02-.02.02 0 0 .02-.02.03v.03c0 .06 0 .11-.02.16l-.03.12a.1.1 0 0 0 0 .03v.04c.02.01 0 .04 0 .06-.02.09-.01.17-.04.26-.01.04-.03.08-.03.13-.02.06 0 .11-.02.17v.02-.03s0-.03.01-.02v.03c-.03.18-.03.36-.06.53 0 .08-.02.15-.03.23v.31c0 .04 0 .09-.02.13-.02.04 0 .04 0 .06V39.7s-.02.03 0 .04v.11l-.02.16v.07s.02.02 0 .03a.12.12 0 0 0-.01.07v.18l-.01.4.01.23v.15a2.44 2.44 0 0 0 .02.34v.06c.02.02 0 .05 0 .07l.03.13c0 .1.01.19.03.28 0 .01 0 .04-.01.01v.03c0 .01 0 .03.01 0v.16c.01.12.04.24.08.35v.04c0 .06.02.12.05.17-.02.07.04.13.04.2v.05c0 .02.01.03.03.05v.02c-.02.04.02.09.03.12v.04a.1.1 0 0 1 0 .03v.05c.05.07.08.14.09.22a.5.5 0 0 0 .07.16v.05l.03.03c.01 0 .02 0 .03.02 0 0 0 .02 0 0l-.02-.02.01.04.11.24.03.05h.01v.02c0 .02 0 0-.01 0 0 0-.03 0-.02.03v-.01.04l.04.1c.08.05.08.16.05.17Zm-.44-7.74v-.04.04Zm-.15 1.05v.04-.06.02Zm-.18.02v-.04.04Zm-.1.74v-.05.05Zm-.1 1.34v-.06.06Zm.16 2.77v-.06l-.02-.02v.03c0 .01-.01.05.02.05Zm.05.2v-.03.05-.01Z"/><path fill="#F9ACAC" d="M98.8 20.24c.15-.48.25-.97.3-1.46-.66-.21-1.5.32-1.96 1.24-.49 1-.35 2.06.31 2.39.07.03.14.06.2.07.02-.7.93-1.58 1.15-2.24Z"/><path fill="#F48787" d="M99.55 21.21c.48-.99.34-2.06-.32-2.39a.97.97 0 0 0-.13-.05c-.04.5-.14.99-.3 1.46-.22.67-1.13 1.54-1.14 2.25.64.14 1.44-.38 1.89-1.27Z"/><path fill="#1B0088" d="m97.86 21.58.12-.22c.13-.23.18-.35.33-.64.32-.64.22-.4.3-.58.1-.18.14-.32.3-.37.04-.02.1-.02.15-.01l.05.06c.1.18-.09.4-.27.72a7.03 7.03 0 0 1-.82 1.18c-.03 0-.09.05-.16-.14Z"/><path fill="#fff" d="M93.31 55.07a6.6 6.6 0 0 1-3.88-.94c-.07.87-.54 2.35-.94 3.16-.4.8-.14 2.07 1.2 2.14 1.34.07 1.61.8 2.28 1.14.67.34 1.51.2 2.01 0 .84-.33 1.08-1.2.4-2.14-.53-.76-1.6-1.1-2.2-1.28l1.13-2.08Z"/><path fill="#885AF5" d="M88.77 54.3c-.1-.37.45-.33.74-.26 1.82 1.18 3.44 1.02 4.02.8.11.09.23.32-.2.54-.54.27-.54-.27-1.2 0-.68.27-.61-.4-1.21-.27s-.8-.2-1.14-.54c-.34-.33-.87.2-1-.27ZM92.84 55.92l-1.6 1.56 1.03-.3-.1-.03.67-1.23ZM83.17 34.7c-.61.29-.93-.32-1.05-.56.42-.36 2.66-1.16 4.68-.89a5.7 5.7 0 0 1 3.14 1.45c.12.2.1 1.72-.65 1.72.14-.6-.26-1.47-.8-1.47-.49 0-.7.18-1.07-.14-.4-.33-.95-.66-1.48-.33s-.85.36-1.4 0c-.56-.36-.6-.14-1.37.22Z"/><path fill="#fff" d="M83.13 34.34c-.6.22-.96-.09-1.08-.27.4-.26 2.62-1 4.56-.8 1.56.16 2.66.78 3.02 1.07.11.16.27.53 0 .74-.34.27-.8-.74-1.27-.74s-.74.4-1.08 0c-.33-.4-.87-.8-1.47-.27-.6.54-.8.27-1.34 0-.54-.26-.6 0-1.34.27Z"/><path fill="#885AF5" d="M74.21 30.85c.05-.96.9-1 1.4-.89-.57-.26-1.03-.24-1.4.09-1.05.92-.51 2.24.13 3.15.17.23.49.58.88 1.01l1.25 1.42c.8.97 1.63 2.1 2.1 3.24v.23c.23-.88.25-1.25.26-1.8a4.04 4.04 0 0 1-1.64-1.07l-.05-.04c-2.19-2.2-2.99-4.2-2.93-5.34Z"/><path fill="#A7B1E9" fill-rule="evenodd" d="M82.5 25.42c-.48-.02-2.12-.04-2.16.46-.05.6 1.89 2.38 2.37 2.24.35-.12.13-1.58 0-2.3.5.38 1.56 1.08 1.85.72.4-.45-.18-3.01-.66-3.17-.4-.13-1.16 1.5-1.4 2.05Z" clip-rule="evenodd"/><path fill="#F48787" d="m77.09 47.75-.07-.13c.14.81.46 2.67-.13 3.43.2-.34.54-.54.87-.67l-.23-.93c-.16-.63-.3-1.2-.44-1.7Z"/><path fill="#F48787" fill-rule="evenodd" d="M75.15 47.76c-.03.6.25.78.4.8l-.07-.87c-.1 0-.22.03-.33.07Zm.31-.28-.03-.35.03.35Z" clip-rule="evenodd"/><path fill="#7F8DE4" d="M86.92 122c-.45-.75-.3-1.85-.23-2.18 1.88-.07 4.35-.23 6.3-.23.3.68.2 1.97 0 2.34l-6.07.08ZM96.98 121.2a4.33 4.33 0 0 1 0-2.41h6.39c.13.8-.1 2-.27 2.35l-6.12.06Z"/><path fill="#2D34CE" d="M100.3 28.08s-.02 0-.01-.01l-.02-.02-.02-.01c0-.01-.02-.04 0-.05l-.02-.02V27.86c-.02-.03-.02-.03-.01-.06v-.03c0-.01 0 0 0 0 0-.01 0 0 0 0h-.01l-.01-.02h.03v-.05c0-.01.01 0 0 0v-.07c-.03-.02-.03-.01 0-.01-.03-.01 0-.01 0-.02h-.02v-.05c0-.02 0 .01-.02 0V27.5l.01-.04c.01-.02.05-.01.03-.04v.02s-.02-.02 0-.02l-.01-.06c-.02-.03 0-.03-.01-.05-.01-.02 0 0 0 0h.04l-.01-.07c-.02-.02 0-.03 0-.05v-.07c0-.02 0 0 0 0l.01.01.01-.03h.02c.03 0 .02 0 .02-.01l-.01-.05a.1.1 0 0 0-.02-.03l-.02-.02c-.01 0-.01 0 0 0h.02c.02 0 0-.01.01-.02.01 0 0 0 0 0l-.03-.02v-.02h.01c.01 0 .02 0 0 0-.02-.04-.02-.04 0-.06v-.03h-.01v-.04c.02 0 .01-.02.02-.02l-.01-.02c-.02 0-.01-.02-.01-.02s0-.03.03-.03h.01c-.02-.02-.02-.02 0-.03v-.02c-.02 0-.04-.01-.04-.03h.02v.01c0-.01.01-.02-.01-.02v-.02h.01l-.01-.02v-.02c0-.01 0-.03-.02-.04l-.01-.03v-.06c0-.02 0-.01.01-.01l.02.02v-.01l-.03-.06v-.03h.02v-.03h.01s.02 0 0-.01v-.01c.01 0 .02-.02 0-.01h-.02v-.06s-.02-.02 0-.02c-.03 0-.03-.01-.02-.02v-.01c0-.01 0-.02.01-.01v-.02h.01v-.11h-.02l.01-.01V26c-.03 0-.02-.01 0-.02-.03-.01-.02-.02 0-.03v-.02l-.01-.02v-.04l-.01-.02s0-.02.02-.03v-.02c-.01 0-.03 0-.01-.01 0 0 .02-.02 0-.02v-.02s-.02-.01 0-.01c.01 0 .01 0 0 0v-.07c.02-.01.01-.02.01-.04-.02 0 0 0 0 0s0-.04-.02-.06a.17.17 0 0 1 .02 0c.01 0 0 0 0 0-.02-.02.01-.04 0-.06l-.03-.05a.07.07 0 0 0 0-.06c.01-.02.01 0 .01 0-.02-.02 0-.03-.01-.04-.01 0-.02-.01 0-.02v-.01s-.02-.03 0-.05v-.08l-.02-.08c-.02 0 0-.02 0-.04 0-.01-.03-.05-.02-.08v-.05c.02-.02.01-.01 0-.02-.02 0 0-.01 0-.02.02 0 0-.01 0-.01v-.01s.01 0 0 0v-.03c.01 0 .01-.01 0 0h-.01v-.05c0-.02-.02-.03 0-.04 0-.02-.01-.02-.02-.03l.01-.07h.01c.02 0 .02-.02.02-.03l.02-.01h.02l.01.04.01.03v.01l.02.01c-.02.02 0 .03 0 .05l.01.02v.02l.01.03.01.1v.02a.1.1 0 0 1 0 .03V25l.01.01v.01h.01v.04l.01.01c.02.03.01.05 0 .07 0 .02.02.02.02.03v.18l.03.05v.04l.01.06v.04c-.02 0 0 .02 0 .02 0 .01-.01.05 0 .07.02.03 0 .05 0 .07l.01.04.01.03-.01.01c-.02 0 0 .01 0 .02 0 0 .03.05 0 .07v.05h.02v.02l-.01-.01h-.01v.03c0 .01 0 0 0 0h.02l-.01.02s-.01 0 0 0v.11c.02 0 .02.01.01.02 0 0 .01.05 0 .07l-.01.04v.05c0 .02 0 0 0 0l.01-.01v.01c0 .05.03.1.02.16V26.52l.01.07v.04l.01.02V26.72l.01.02c-.01 0-.02.01-.01.02v.1h.01c.02 0 .02 0 0 0v.28c.02.02 0 .02 0 .04V27.36l-.01.08h-.01c-.02-.01 0 0 0 .01h.01v.04l-.01.06a.25.25 0 0 0 0 .06l.01.06c-.02 0 0 .04 0 .06-.02.01-.02.01 0 .03-.03 0-.02.02-.02.03l-.01.02v.01c0 .03.01.06 0 .07-.02.02 0 .04 0 .06 0 0 0 .02 0 0v.02l.02.01h-.02c.02.04 0 .05 0 .08v.02s.01.01 0 0c-.02-.02-.03-.01-.03 0h.01-.01l-.01.03-.07-.03Zm.1-2.29h-.01Zm0 .32c.02.01 0 0 0 0Zm-.15 0c.01 0 0 0 0 0Zm0 .22h.01v-.01s-.01 0 0 0Zm.01.37c0 .01-.01 0 0 0Zm-.05.77c.01 0 0 0 0 0v-.02c0 .02-.03.02 0 .03Zm0 .06c.01 0 .01 0 0 0v.01ZM107.47 39.23h-.01c0-.04-.02-.02-.03 0h-.02c0-.02-.04-.07-.04-.12 0-.02 0-.02-.02-.02a.08.08 0 0 1-.02-.04v-.06a.1.1 0 0 0 0-.04l-.05-.12v-.07c-.03-.04-.03-.07-.04-.14 0-.04 0-.07-.02-.1v-.01.01l-.03-.03v-.02h.02l.01-.03c0-.04 0-.08-.02-.13 0 0 0-.04-.01 0v-.13a.2.2 0 0 0-.03-.07c0-.01-.02-.02 0-.03v-.02c-.02 0-.01-.02-.01-.03V38v.01l-.01.02v-.02c-.02-.05-.01-.1-.03-.14 0 0 0 .03-.01.02l-.01-.02v-.02a.28.28 0 0 0-.02-.14v-.14c0-.04.03-.08 0-.12v.04c0-.03-.02-.03 0-.06a.48.48 0 0 0-.03-.17c-.02-.03-.01-.09-.03-.13l.01-.01c.03 0 .03-.01.03-.05a.43.43 0 0 0-.03-.17.99.99 0 0 1-.02-.14v-.09c-.02-.05-.02-.1-.02-.14v-.02.01c0 .01 0 .02.02.02v-.14h.01c.03 0 .02-.02.02-.04l-.02-.13c0-.03 0-.05-.02-.07a.13.13 0 0 0-.03-.04v-.01l.03-.04c.02-.01 0-.04 0-.06.01-.02 0 0 0 0s-.03-.02-.02-.05a.14.14 0 0 0 0-.06v-.02c.01 0 0 .03.01.02a.06.06 0 0 0 0-.05c-.03-.07-.03-.07 0-.14V35.6v.02l-.01.01v-.13c.02-.02.02-.05.02-.07v-.03a.03.03 0 0 0 0-.02l-.01-.02v-.03c.02-.03 0-.08.04-.08l.01-.04v-.06c.03-.03.02-.05 0-.06a.1.1 0 0 1-.01-.04v-.07c.02 0 .01.01.01.02v.02l.01-.02c0-.02.01-.04-.01-.05v-.04.02c.01 0 .02-.01.01-.02v-.14a.7.7 0 0 0 0-.1v-.18c.02-.04.02-.07.02-.1 0-.01 0-.03.01-.02v.04l.01.01c.02 0 0-.02 0-.03a.7.7 0 0 0 0-.17c0-.02.01-.05 0-.07h.01c0 .02.02.03.02 0v-.07c0-.02 0-.04.01-.03.01 0 .02 0 .01-.02V34c0-.02.01-.04-.01-.03v-.13c.02-.03 0-.03 0-.05 0-.02 0-.05.02-.05l-.01-.02c-.03 0-.02-.02-.02-.05v-.04c0-.02.01-.03.03-.02l-.01-.03v-.02h.02v.02-.32c0-.01-.01.02-.01-.01v-.07c-.02-.01-.01-.02 0-.03.02-.01.01-.01 0-.02-.02-.03-.01-.06 0-.1a.05.05 0 0 0 0-.03v-.06l-.01-.06V32.67c.02-.02.02-.03 0-.04-.01 0-.02 0 0-.03 0-.03 0-.05-.02-.05v-.04c0-.02-.02-.04 0-.05v-.02l-.01-.03c-.02-.04 0-.09 0-.13l-.02-.11c-.02.02-.02-.01-.02-.02-.01-.04-.01-.1-.04-.12V32s0-.02.01 0c0 .01 0 .02.01 0V32c-.03-.02-.02-.1-.05-.13-.03-.03-.03-.08-.05-.1a.37.37 0 0 0-.07-.16v-.04c-.02 0-.01-.05-.03-.06-.02 0-.03-.02-.02-.06l-.01-.03a.12.12 0 0 1-.03-.04.19.19 0 0 1-.02-.06.2.2 0 0 0 0-.05.11.11 0 0 0-.03-.04.28.28 0 0 1-.05-.1.92.92 0 0 1-.08-.18c-.03 0-.03-.05-.05-.08a.95.95 0 0 1-.08-.18l-.05-.13v-.03h-.01c-.02 0-.02-.04-.03-.06v-.03h-.01v-.03c-.02 0-.02-.04-.03-.07v-.01c-.02.02-.02 0-.02 0l-.05-.13c-.01-.04-.03-.06-.03-.1 0-.04-.01-.04-.02-.06a.71.71 0 0 1-.04-.18l.01-.03v-.02a.1.1 0 0 0 .01-.03v-.04c.02-.03.02-.02.03 0 0 .04.03.07.04.1l.03.08v.02c.02 0 .02.02.02.02 0 .05.03.07.04.1l.04.11c0 .04.02.04.03.06l.1.22.02.04.03.07c.01.04.03.06.05.08l.02.03c0 .03.01.05.03.06.03.04.05.1.07.15.01.02.03.03.03.05l.04.08.04.12c.03.03.03.08.04.1a.52.52 0 0 1 .06.13c.03.02.04.05.06.1l.04.1c.01.06.05.1.06.15.01.04.01.08.04.1-.02.03 0 .05 0 .07l.05.2.04.18.02.11c.01.03 0 .06.02.09v.04c-.02.01 0 .04 0 .06.01.07.04.14.02.22v.12c.02 0 .02.02.02.03v.03-.02l-.02-.01v.1s0 .01 0 0h.02v.03l-.01.01v.02c0 .04.01.1 0 .14v.16c.02.02 0 .04 0 .06v.21l-.03.12v.15-.03c.02 0 .01.02 0 .03 0 .15 0 .3-.03.45l-.02.19v.07a2.43 2.43 0 0 1-.02.3v.05a1.3 1.3 0 0 1-.01.24v.03h-.01v.03a.17.17 0 0 1 0 .1.9.9 0 0 1-.02.12v.05c0 .02 0 0 0 0s.02.02 0 .03v.52c0 .06 0 .13.02.2v.11a4.11 4.11 0 0 0 .02.33v.06l.02.11.02.23c0 .01 0 .03-.02.02l.01.02s0 .02.02 0v-.01.13a1.31 1.31 0 0 0 .05.33.27.27 0 0 0 .02.14c-.02.07.02.12.02.18v.08h.01v.01c-.02.05 0 .08.01.11v.1c.02.06.03.12.03.2 0 .05.02.08.03.12v.02c0 .03 0 .04.02.05l.01.02c0 .02 0 0 0 0l-.01-.02v.04c.03.05.02.13.04.2 0 0 0 .03.02.03v.02h-.01c-.02 0-.02.02-.02.04v-.02.04c0 .03 0 .06.02.08a.28.28 0 0 1-.04.16Zm-.18-6.52v-.03.03Zm-.01.92v.03-.05.02Zm-.16.01.01-.01v-.02.03Zm-.04.61v-.04.04Zm-.1 1.11v-.05.05Zm.1 2.34v-.05l-.01-.01v.02c.01 0-.02.04 0 .04Zm.02.18v-.03.02ZM106.18 19.14h.01c0 .03.02.02.02.01l.02.01c0 .01.02.05 0 .09l.02.02v.07l-.01.02a1.58 1.58 0 0 0 0 .12v.02l-.01.1-.02.07v.01h.01c0-.01 0-.01 0 0l.01.02v.02h-.01c-.01-.02-.02-.01-.02 0l-.02.1s0 .02.01 0v.03l-.02.06v.05s.02.02 0 .02c0 0-.01 0 0 0v.04h-.01l.01-.01v.02l-.02.1s.01-.03.02-.02v.03l-.02.05v.04c0 .04-.01.07-.03.1 0 .03-.04.04-.04.08l.02-.03v.04h-.01a.28.28 0 0 0-.02.12v.1h-.02c-.02-.01-.02 0-.03.02a.26.26 0 0 0-.02.12l-.01.1-.02.04v.02l-.02.1h-.01v-.02.02a.24.24 0 0 0-.04.06v.01h-.02c-.02-.01 0 0-.01.02l-.02.1v.04c0 .01 0 .02.02.03v.01l-.04.02c-.02 0 0 .02-.02.03 0 .02.01 0 .01 0s.02.03 0 .05v.04h-.02s0-.01 0 0l-.01.02c0 .06 0 .06-.04.1 0 .03 0 .04-.02.06v.02-.02h.02l-.04.08c-.02 0-.02.03-.03.04h-.01v.07c-.03.01-.03.05-.06.04l-.02.02c0 .03 0 .04-.02.04-.02.01-.01.03 0 .04v.03a.1.1 0 0 1-.01.03s-.01.02-.02.01V22v.01c0 .02-.02.03 0 .04v.02h-.01c0 .02 0 0 0 0h-.02v.05l-.03.04a.6.6 0 0 0-.02.08l-.05.11a.3.3 0 0 0-.03.06l-.02.01v-.01l.01-.01v-.01.01a.4.4 0 0 0-.04.12c0 .01-.03.02-.02.04l-.01-.01s0-.02-.02 0a.4.4 0 0 0-.01.05c0 .01 0 .03-.02.01 0 0-.02 0-.01.01v.01l-.01.01c-.01.01-.02.02 0 .02v.01c0 .03 0 .06-.03.08-.02.01-.01.02-.02.03 0 .01 0 .04-.02.03v.01c.03.01.02.03 0 .04v.03h-.03v.03h-.01v-.01h-.01a.6.6 0 0 0-.02.06c0 .03-.02.06-.03.08-.02.02-.01.05-.02.06 0 .01.02 0 0 .02l-.01.02v.02c.01.01 0 .02-.01.02v.02c0 .02 0 .04-.03.05a.03.03 0 0 0 0 .03l-.02.04v.04a.1.1 0 0 1-.02.03v.04a.1.1 0 0 1-.04.06v.03c0 .01.02 0 0 .03-.02.01-.03.02 0 .03l-.02.03-.01.03v.04l-.02.08a.5.5 0 0 0-.02.08c.02 0 .01.01.01.02V23.97h-.01v-.01.11c.01.04 0 .06.02.09l.01.12v.08c.02 0 .02.02 0 .04l.01.02.02.04a.1.1 0 0 1 0 .04.1.1 0 0 0-.01.04l.01.03a.2.2 0 0 1 .02.08l.02.14c.02 0 .02.04.02.06l.02.14c0 .04.02.07 0 .1v.02h.01v.01c.02 0 0 .03.01.04v.11l.02.01v.1c0 .02.02.04 0 .07l.01.04-.01.13-.01.02h-.02v.03l-.01.01-.01.01c-.01.02-.02.01-.02 0v-.08l-.01-.06v-.02l-.01-.02c.01-.03 0-.05-.01-.08v-.08l-.02-.04-.02-.18v-.02l-.02-.06a.1.1 0 0 0-.02-.07v-.02a.1.1 0 0 0-.02-.05c-.02-.03-.01-.08-.02-.12l-.01-.04-.02-.07v-.09c-.01-.02 0-.05 0-.07a.38.38 0 0 1-.03-.1c-.02-.03-.01-.05-.02-.09 0-.02-.01-.04 0-.07l-.02-.12V24.02c0-.05.01-.1 0-.14l.02-.13v-.08l.02-.06.01-.03c.02 0 0-.03 0-.04.02-.05.01-.1.05-.15l.01-.05v-.05l.02-.02v.02l.02-.06v-.01h-.01l.01-.01.01-.01v-.01c0-.03.01-.07.03-.1l.03-.06c.02-.02.02-.02.01-.04l.01-.04c.03-.04.03-.1.06-.14a.76.76 0 0 0 .05-.06l.04-.1-.02.02v-.02l.14-.29.06-.11c.01-.02 0-.03.02-.05a1.3 1.3 0 0 1 .09-.18v-.04a.89.89 0 0 1 .07-.16l.02-.01.01-.01v-.04l.02-.03a.45.45 0 0 1 .04-.08s0-.02.02-.03c0-.01 0 0 0 0-.01 0-.02-.02 0-.03h.01v-.02l.04-.1.07-.2a.66.66 0 0 0 .03-.14c0-.02.03-.05.03-.08l.04-.15.02-.04v-.03l.01-.04.02-.07.04-.16s0-.02 0 0c.02-.01.01-.02.01-.02 0-.01 0-.02-.01 0v-.01l.02-.08a.75.75 0 0 0 .04-.2v-.03l.02-.05v-.05c.03-.04 0-.08.02-.12.01-.01.03-.03.01-.05v-.01c.03-.02.02-.05.02-.07 0-.03.01-.03.03-.04v-.03c0-.04 0-.09.02-.13.02-.04 0-.07 0-.1.02-.02.02-.04 0-.05v-.01c0-.01 0 0 0 0v.02c.02-.01.02-.03.02-.03-.02-.04 0-.1 0-.14v-.04h.02c.01 0 .02 0 .02-.02h-.01v-.01c.02-.02.02-.04.02-.06l.02-.05a.13.13 0 0 1 .04-.04Zm-1.38 4.3v.02-.02Zm.23-.6v-.02l-.01.03v-.01Zm.12.04c-.02.01 0 .02 0 .02v-.02Zm.18-.39v.03c-.01 0 0 0 0 0v-.02Zm.34-.69v.01l-.01.02v-.01l.01-.01Zm.47-1.55v.04-.01s.02-.02 0-.03Zm.02-.12v.01-.01Z"/><path stroke="#1B0088" stroke-linecap="round" stroke-linejoin="round" stroke-width="3" d="M7 132h108M126.5 132h10"/></svg>